<svg width="1478" height="1056" viewBox="0 0 1478 1056" fill="none" xmlns="http://www.w3.org/2000/svg">
<rect x="33.8975" y="700.932" width="234.824" height="148.863" rx="3.95489" fill="#531B24" stroke="#EDD0A6" stroke-width="1.12997"/>
<rect x="618.08" y="700.932" width="234.824" height="148.863" rx="3.95489" fill="#531B24" stroke="#EDD0A6" stroke-width="1.12997"/>
<rect x="326.866" y="700.932" width="234.824" height="148.863" rx="3.95489" fill="#531B24" stroke="#EDD0A6" stroke-width="1.12997"/>
<rect x="911.048" y="700.932" width="234.824" height="148.863" rx="3.95489" fill="#531B24" stroke="#EDD0A6" stroke-width="1.12997"/>
<rect x="1204.02" y="700.932" width="234.824" height="148.863" rx="3.95489" fill="#531B24" stroke="#EDD0A6" stroke-width="1.12997"/>
<rect x="12.8443" y="860.572" width="276.05" height="68.165" rx="15.2546" fill="#531B24" stroke="#EDD0A6" stroke-width="1.12997"/>
<rect x="597.028" y="860.572" width="276.05" height="68.165" rx="15.2546" fill="#531B24" stroke="#EDD0A6" stroke-width="1.12997"/>
<rect x="305.814" y="860.572" width="276.05" height="68.165" rx="15.2546" fill="#531B24" stroke="#EDD0A6" stroke-width="1.12997"/>
<rect x="889.996" y="860.572" width="276.05" height="68.165" rx="15.2546" fill="#531B24" stroke="#EDD0A6" stroke-width="1.12997"/>
<rect x="1182.97" y="860.572" width="276.05" height="68.165" rx="15.2546" fill="#531B24" stroke="#EDD0A6" stroke-width="1.12997"/>
<rect x="20.7386" y="807.945" width="19.0445" height="67.2878" fill="#531B24" stroke="#EDD0A6" stroke-width="1.12997"/>
<rect x="604.923" y="807.945" width="19.0445" height="67.2878" fill="#531B24" stroke="#EDD0A6" stroke-width="1.12997"/>
<rect x="313.708" y="807.068" width="19.0445" height="61.1478" fill="#531B24" stroke="#EDD0A6" stroke-width="1.12997"/>
<rect x="897.891" y="807.068" width="19.0445" height="61.1478" fill="#531B24" stroke="#EDD0A6" stroke-width="1.12997"/>
<rect x="1190.86" y="807.068" width="19.0445" height="61.1478" fill="#531B24" stroke="#EDD0A6" stroke-width="1.12997"/>
<rect x="266.342" y="811.453" width="19.0445" height="56.762" fill="#531B24" stroke="#EDD0A6" stroke-width="1.12997"/>
<rect x="850.525" y="811.453" width="19.0445" height="56.762" fill="#531B24" stroke="#EDD0A6" stroke-width="1.12997"/>
<rect x="559.31" y="811.453" width="19.0445" height="56.762" fill="#531B24" stroke="#EDD0A6" stroke-width="1.12997"/>
<rect x="1143.49" y="811.453" width="19.0445" height="56.762" fill="#531B24" stroke="#EDD0A6" stroke-width="1.12997"/>
<rect x="1436.46" y="811.453" width="19.0445" height="56.762" fill="#531B24" stroke="#EDD0A6" stroke-width="1.12997"/>
<rect x="205.819" y="929.868" width="45.359" height="102.374" fill="#531B24" stroke="#EDD0A6" stroke-width="1.12997"/>
<rect x="790" y="929.868" width="45.359" height="102.374" fill="#531B24" stroke="#EDD0A6" stroke-width="1.12997"/>
<rect x="498.786" y="929.868" width="45.359" height="102.374" fill="#531B24" stroke="#EDD0A6" stroke-width="1.12997"/>
<rect x="1082.97" y="929.868" width="45.359" height="102.374" fill="#531B24" stroke="#EDD0A6" stroke-width="1.12997"/>
<rect x="1375.94" y="929.868" width="45.359" height="102.374" fill="#531B24" stroke="#EDD0A6" stroke-width="1.12997"/>
<rect x="50.563" y="929.868" width="45.359" height="102.374" fill="#531B24" stroke="#EDD0A6" stroke-width="1.12997"/>
<rect x="634.745" y="929.868" width="45.359" height="102.374" fill="#531B24" stroke="#EDD0A6" stroke-width="1.12997"/>
<rect x="343.53" y="929.868" width="45.359" height="102.374" fill="#531B24" stroke="#EDD0A6" stroke-width="1.12997"/>
<rect x="927.713" y="929.868" width="45.359" height="102.374" fill="#531B24" stroke="#EDD0A6" stroke-width="1.12997"/>
<rect x="1220.68" y="929.868" width="45.359" height="102.374" fill="#531B24" stroke="#EDD0A6" stroke-width="1.12997"/>
<rect x="285.386" y="1033.37" width="21.676" height="272.541" transform="rotate(90 285.386 1033.37)" fill="#531B24" stroke="#EDD0A6" stroke-width="1.12997"/>
<rect x="869.568" y="1033.37" width="21.676" height="272.541" transform="rotate(90 869.568 1033.37)" fill="#531B24" stroke="#EDD0A6" stroke-width="1.12997"/>
<rect x="578.355" y="1033.37" width="21.676" height="272.541" transform="rotate(90 578.355 1033.37)" fill="#531B24" stroke="#EDD0A6" stroke-width="1.12997"/>
<rect x="1162.54" y="1033.37" width="21.676" height="272.541" transform="rotate(90 1162.54 1033.37)" fill="#531B24" stroke="#EDD0A6" stroke-width="1.12997"/>
<rect x="1455.51" y="1033.37" width="21.676" height="272.541" transform="rotate(90 1455.51 1033.37)" fill="#531B24" stroke="#EDD0A6" stroke-width="1.12997"/>
<path d="M268.721 699.928C268.721 754.025 216.253 798.043 151.309 798.043C86.3659 798.043 33.8975 754.025 33.8975 699.928C33.8975 645.831 86.3659 601.814 151.309 601.814C216.253 601.814 268.721 645.831 268.721 699.928Z" fill="#531B24" stroke="#EDD0A6" stroke-width="1.12997"/>
<path d="M852.903 699.928C852.903 754.025 800.435 798.043 735.492 798.043C670.548 798.043 618.08 754.025 618.08 699.928C618.08 645.832 670.548 601.814 735.492 601.814C800.435 601.814 852.903 645.832 852.903 699.928Z" fill="#531B24" stroke="#EDD0A6" stroke-width="1.12997"/>
<path d="M561.689 699.928C561.689 754.025 509.221 798.043 444.277 798.043C379.334 798.043 326.866 754.025 326.866 699.928C326.866 645.832 379.334 601.814 444.277 601.814C509.221 601.814 561.689 645.832 561.689 699.928Z" fill="#531B24" stroke="#EDD0A6" stroke-width="1.12997"/>
<path d="M1145.87 699.928C1145.87 754.025 1093.4 798.043 1028.46 798.043C963.517 798.043 911.048 754.025 911.048 699.928C911.048 645.832 963.517 601.814 1028.46 601.814C1093.4 601.814 1145.87 645.832 1145.87 699.928Z" fill="#531B24" stroke="#EDD0A6" stroke-width="1.12997"/>
<path d="M1438.84 699.928C1438.84 754.025 1386.37 798.043 1321.43 798.043C1256.48 798.043 1204.02 754.025 1204.02 699.928C1204.02 645.831 1256.48 601.814 1321.43 601.814C1386.37 601.814 1438.84 645.831 1438.84 699.928Z" fill="#531B24" stroke="#EDD0A6" stroke-width="1.12997"/>
<rect x="56.7029" y="567.605" width="188.335" height="84.8309" rx="41.8089" fill="#531B24" stroke="#EDD0A6" stroke-width="1.12997"/>
<rect x="640.886" y="567.605" width="188.335" height="84.8309" rx="41.8089" fill="#531B24" stroke="#EDD0A6" stroke-width="1.12997"/>
<rect x="349.671" y="567.605" width="188.335" height="84.8309" rx="41.8089" fill="#531B24" stroke="#EDD0A6" stroke-width="1.12997"/>
<rect x="933.853" y="567.605" width="188.335" height="84.8309" rx="41.8089" fill="#531B24" stroke="#EDD0A6" stroke-width="1.12997"/>
<rect x="1226.82" y="567.605" width="188.335" height="84.8309" rx="41.8089" fill="#531B24" stroke="#EDD0A6" stroke-width="1.12997"/>
<rect x="56.7029" y="567.605" width="188.335" height="67.2878" rx="33.6439" fill="#531B24" stroke="#EDD0A6" stroke-width="1.12997"/>
<rect x="640.886" y="567.605" width="188.335" height="67.2878" rx="33.6439" fill="#531B24" stroke="#EDD0A6" stroke-width="1.12997"/>
<rect x="349.671" y="567.605" width="188.335" height="67.2878" rx="33.6439" fill="#531B24" stroke="#EDD0A6" stroke-width="1.12997"/>
<rect x="933.853" y="567.605" width="188.335" height="67.2878" rx="33.6439" fill="#531B24" stroke="#EDD0A6" stroke-width="1.12997"/>
<rect x="1226.82" y="567.605" width="188.335" height="67.2878" rx="33.6439" fill="#531B24" stroke="#EDD0A6" stroke-width="1.12997"/>
<rect x="0.564985" y="780.752" width="65.5335" height="32.2018" rx="16.1009" fill="#531B24" stroke="#EDD0A6" stroke-width="1.12997"/>
<path d="M288.895 873.165C288.895 878.201 285.225 883.13 278.258 887.716C271.315 892.288 261.229 896.427 248.716 899.912C223.699 906.879 189.105 911.195 150.87 911.195C112.636 911.195 78.0417 906.879 53.0239 899.912C40.511 896.427 30.4259 892.288 23.482 887.716C16.5155 883.13 12.8453 878.201 12.8453 873.165C12.8453 868.13 16.5155 863.201 23.482 858.615C30.4259 854.043 40.511 849.904 53.0239 846.419C78.0417 839.452 112.636 835.136 150.87 835.136C189.105 835.136 223.699 839.452 248.716 846.419C261.229 849.904 271.315 854.043 278.258 858.615C285.225 863.201 288.895 868.13 288.895 873.165Z" fill="#531B24" stroke="#EDD0A6" stroke-width="1.12997"/>
<path d="M873.078 873.165C873.078 878.201 869.407 883.13 862.441 887.716C855.497 892.288 845.412 896.427 832.899 899.912C807.881 906.879 773.287 911.195 735.053 911.195C696.818 911.195 662.224 906.879 637.206 899.912C624.693 896.427 614.608 892.288 607.664 887.716C600.698 883.13 597.028 878.201 597.028 873.165C597.028 868.13 600.698 863.201 607.664 858.615C614.608 854.043 624.693 849.904 637.206 846.419C662.224 839.452 696.818 835.136 735.053 835.136C773.287 835.136 807.881 839.452 832.899 846.419C845.412 849.904 855.497 854.043 862.441 858.615C869.407 863.201 873.078 868.13 873.078 873.165Z" fill="#531B24" stroke="#EDD0A6" stroke-width="1.12997"/>
<path d="M581.863 873.165C581.863 878.201 578.193 883.13 571.227 887.716C564.283 892.288 554.198 896.427 541.685 899.912C516.667 906.879 482.073 911.195 443.838 911.195C405.604 911.195 371.01 906.879 345.992 899.912C333.479 896.427 323.394 892.288 316.45 887.716C309.484 883.13 305.814 878.201 305.814 873.165C305.814 868.13 309.484 863.201 316.45 858.615C323.394 854.043 333.479 849.904 345.992 846.419C371.01 839.452 405.604 835.136 443.838 835.136C482.073 835.136 516.667 839.452 541.685 846.419C554.198 849.904 564.283 854.043 571.227 858.615C578.193 863.201 581.863 868.13 581.863 873.165Z" fill="#531B24" stroke="#EDD0A6" stroke-width="1.12997"/>
<path d="M1166.05 873.165C1166.05 878.201 1162.38 883.13 1155.41 887.716C1148.47 892.288 1138.38 896.427 1125.87 899.912C1100.85 906.879 1066.26 911.195 1028.02 911.195C989.787 911.195 955.193 906.879 930.175 899.912C917.662 896.427 907.577 892.288 900.633 887.716C893.666 883.13 889.996 878.201 889.996 873.165C889.996 868.13 893.666 863.201 900.633 858.615C907.577 854.043 917.662 849.904 930.175 846.419C955.193 839.452 989.787 835.136 1028.02 835.136C1066.26 835.136 1100.85 839.452 1125.87 846.419C1138.38 849.904 1148.47 854.043 1155.41 858.615C1162.38 863.201 1166.05 868.13 1166.05 873.165Z" fill="#531B24" stroke="#EDD0A6" stroke-width="1.12997"/>
<path d="M1459.02 873.165C1459.02 878.201 1455.35 883.13 1448.38 887.716C1441.43 892.288 1431.35 896.427 1418.84 899.912C1393.82 906.879 1359.22 911.195 1320.99 911.195C1282.76 911.195 1248.16 906.879 1223.14 899.912C1210.63 896.427 1200.55 892.288 1193.6 887.716C1186.64 883.13 1182.97 878.201 1182.97 873.165C1182.97 868.13 1186.64 863.201 1193.6 858.615C1200.55 854.043 1210.63 849.904 1223.14 846.419C1248.16 839.452 1282.76 835.136 1320.99 835.136C1359.22 835.136 1393.82 839.452 1418.84 846.419C1431.35 849.904 1441.43 854.043 1448.38 858.615C1455.35 863.201 1459.02 868.13 1459.02 873.165Z" fill="#531B24" stroke="#EDD0A6" stroke-width="1.12997"/>
<rect x="240.026" y="780.752" width="110.268" height="32.2018" rx="16.1009" fill="#531B24" stroke="#EDD0A6" stroke-width="1.12997"/>
<rect x="824.21" y="780.752" width="110.268" height="32.2018" rx="16.1009" fill="#531B24" stroke="#EDD0A6" stroke-width="1.12997"/>
<rect x="532.996" y="780.752" width="110.268" height="32.2018" rx="16.1009" fill="#531B24" stroke="#EDD0A6" stroke-width="1.12997"/>
<rect x="1117.18" y="780.752" width="110.268" height="32.2018" rx="16.1009" fill="#531B24" stroke="#EDD0A6" stroke-width="1.12997"/>
<rect x="1411.9" y="779.876" width="65.5335" height="32.2018" rx="16.1009" fill="#531B24" stroke="#EDD0A6" stroke-width="1.12997"/>
<path d="M149.152 752.31C140.848 752.31 134.323 749.344 129.578 743.412C124.832 737.481 122.46 728.418 122.46 716.226C122.46 704.362 125.03 695.399 130.171 689.336C135.377 683.206 142.528 680.141 151.624 680.141C155.512 680.141 158.906 680.801 161.806 682.119C164.772 683.371 167.013 684.986 168.529 686.963C170.111 688.94 170.901 690.95 170.901 692.993C170.901 695.234 170.209 697.047 168.825 698.431C167.507 699.749 165.728 700.408 163.487 700.408C162.564 700.408 161.641 700.342 160.719 700.21L159.532 699.914V684.096L157.654 683.404C156.204 682.877 154.853 682.613 153.601 682.613C150.371 682.613 147.702 683.47 145.593 685.183C143.55 686.897 141.968 690.06 140.848 694.674C139.793 699.287 139.266 705.812 139.266 714.248C139.991 713.128 140.881 712.139 141.935 711.283C144.44 709.305 147.34 708.317 150.635 708.317C155.446 708.317 159.631 709.239 163.19 711.085C166.815 712.864 169.583 715.369 171.495 718.598C173.406 721.828 174.362 725.486 174.362 729.572C174.362 736.624 172.154 742.193 167.738 746.279C163.388 750.3 157.193 752.31 149.152 752.31ZM149.152 750.333C150.47 750.333 151.755 749.674 153.008 748.355C154.326 747.037 155.413 744.895 156.27 741.929C157.127 738.964 157.555 735.174 157.555 730.56C157.555 725.947 157.094 722.157 156.171 719.191C155.314 716.226 154.194 714.084 152.81 712.766C151.492 711.447 150.108 710.788 148.658 710.788C145.956 710.788 143.781 712.106 142.133 714.743C140.551 717.379 139.76 721.498 139.76 727.1C139.76 735.471 140.65 741.435 142.43 744.994C144.275 748.553 146.516 750.333 149.152 750.333Z" fill="#EDD0A6"/>
<path d="M433.554 750.827C433.554 744.302 434.443 738.535 436.223 733.526C438.068 728.451 440.276 724.135 442.847 720.576C445.417 716.951 448.778 712.864 452.93 708.317C456.555 704.362 459.389 701.001 461.432 698.233C463.541 695.399 465.123 692.334 466.178 689.039H431.082C430.621 692.598 429.5 695.564 427.721 697.936C426.996 699.057 426.139 700.045 425.151 700.902H422.185V681.624H469.144V686.073C469.144 689.764 468.55 693.191 467.364 696.355C466.244 699.518 464.464 703.604 462.026 708.613C459.653 713.293 457.709 717.445 456.193 721.07C454.743 724.695 453.491 729.045 452.436 734.119C451.382 739.128 450.854 744.698 450.854 750.827H433.554Z" fill="#EDD0A6"/>
<path d="M734.265 752.31C725.96 752.31 719.666 750.662 715.382 747.367C711.164 744.072 709.055 739.788 709.055 734.515C709.055 730.89 710.637 727.397 713.801 724.036C716.964 720.609 720.82 718.17 725.367 716.72C721.017 714.282 717.689 711.612 715.382 708.712C713.142 705.747 712.021 702.155 712.021 697.937C712.021 692.664 714.13 688.38 718.348 685.085C722.632 681.789 728.926 680.142 737.231 680.142C741.383 680.142 745.008 680.9 748.105 682.416C751.269 683.931 753.707 685.909 755.421 688.347C757.135 690.786 757.991 693.323 757.991 695.959C757.991 699.057 756.64 702.056 753.938 704.956C751.302 707.856 748.204 709.8 744.645 710.789C750.643 713.425 755.19 716.555 758.288 720.18C761.386 723.805 762.934 728.254 762.934 733.527C762.934 736.954 761.88 740.084 759.771 742.918C757.662 745.752 754.465 748.026 750.181 749.74C745.897 751.453 740.592 752.31 734.265 752.31ZM741.679 708.811C744.184 707.691 746.194 706.076 747.71 703.967C749.292 701.858 750.082 699.189 750.082 695.959C750.082 693.587 749.489 691.379 748.303 689.336C747.183 687.293 745.7 685.678 743.854 684.492C742.075 683.239 740.196 682.613 738.219 682.613C735.385 682.613 733.013 683.734 731.101 685.974C729.256 688.149 728.333 691.148 728.333 694.971C728.333 700.243 732.782 704.857 741.679 708.811ZM733.276 749.839C737.494 749.839 740.757 748.685 743.063 746.378C745.436 744.006 746.622 740.71 746.622 736.492C746.622 733.329 745.041 730.132 741.877 726.903C738.713 723.673 734.528 720.938 729.322 718.697C725.631 720.016 722.731 721.993 720.622 724.629C718.513 727.199 717.458 730.495 717.458 734.515C717.458 737.283 718.15 739.854 719.535 742.226C720.984 744.533 722.896 746.378 725.268 747.762C727.707 749.147 730.376 749.839 733.276 749.839Z" fill="#EDD0A6"/>
<path d="M1024.95 752.31C1021.06 752.31 1017.63 751.684 1014.67 750.432C1011.77 749.114 1009.53 747.466 1007.95 745.489C1006.43 743.511 1005.67 741.501 1005.67 739.458C1005.67 737.217 1006.33 735.438 1007.65 734.12C1009.03 732.736 1010.85 732.044 1013.09 732.044C1013.61 732.044 1014.14 732.11 1014.67 732.241C1015.2 732.307 1015.56 732.34 1015.76 732.34L1017.04 732.538V748.356L1018.92 749.147C1020.11 749.608 1021.46 749.839 1022.97 749.839C1026.2 749.839 1028.84 748.982 1030.88 747.268C1032.92 745.555 1034.51 742.391 1035.63 737.778C1036.75 733.164 1037.31 726.639 1037.31 718.203C1036.71 719.192 1035.79 720.18 1034.54 721.169C1032.03 723.146 1029.17 724.135 1025.94 724.135C1021.13 724.135 1016.91 723.245 1013.28 721.466C1009.73 719.62 1006.99 717.083 1005.08 713.853C1003.17 710.624 1002.21 706.966 1002.21 702.88C1002.21 695.828 1004.39 690.291 1008.74 686.271C1013.15 682.185 1019.38 680.142 1027.42 680.142C1035.73 680.142 1042.25 683.108 1047 689.039C1051.74 694.971 1054.11 704.033 1054.11 716.226C1054.11 728.089 1051.51 737.086 1046.3 743.215C1041.16 749.278 1034.04 752.31 1024.95 752.31ZM1027.92 721.663C1030.62 721.663 1032.76 720.345 1034.34 717.709C1035.99 715.073 1036.81 710.953 1036.81 705.351C1036.81 696.981 1035.89 691.016 1034.04 687.457C1032.27 683.898 1030.06 682.119 1027.42 682.119C1026.1 682.119 1024.78 682.778 1023.47 684.096C1022.21 685.414 1021.16 687.556 1020.3 690.522C1019.45 693.488 1019.02 697.278 1019.02 701.891C1019.02 706.505 1019.45 710.294 1020.3 713.26C1021.23 716.226 1022.35 718.368 1023.66 719.686C1025.05 721.004 1026.47 721.663 1027.92 721.663Z" fill="#EDD0A6"/>
<path d="M1322.41 752.31C1317.08 752.31 1312.23 750.893 1307.88 748.059C1303.53 745.225 1300.07 741.106 1297.5 735.701C1295 730.231 1293.74 723.739 1293.74 716.226C1293.74 708.712 1295 702.253 1297.5 696.849C1300.07 691.379 1303.53 687.226 1307.88 684.392C1312.23 681.558 1317.08 680.141 1322.41 680.141C1327.75 680.141 1332.6 681.558 1336.95 684.392C1341.3 687.226 1344.72 691.379 1347.23 696.849C1349.8 702.253 1351.08 708.712 1351.08 716.226C1351.08 723.739 1349.8 730.231 1347.23 735.701C1344.72 741.106 1341.3 745.225 1336.95 748.059C1332.6 750.893 1327.75 752.31 1322.41 752.31ZM1322.41 750.333C1329.99 750.333 1333.78 738.964 1333.78 716.226C1333.78 693.488 1329.99 682.119 1322.41 682.119C1314.83 682.119 1311.04 693.488 1311.04 716.226C1311.04 738.964 1314.83 750.333 1322.41 750.333Z" fill="#EDD0A6"/>
<rect x="33.8975" y="134.282" width="234.824" height="148.863" rx="3.95489" fill="#531B24" stroke="#EDD0A6" stroke-width="1.12997"/>
<rect x="618.08" y="134.282" width="234.824" height="148.863" rx="3.95489" fill="#531B24" stroke="#EDD0A6" stroke-width="1.12997"/>
<rect x="326.866" y="134.282" width="234.824" height="148.863" rx="3.95489" fill="#531B24" stroke="#EDD0A6" stroke-width="1.12997"/>
<rect x="911.048" y="134.282" width="234.824" height="148.863" rx="3.95489" fill="#531B24" stroke="#EDD0A6" stroke-width="1.12997"/>
<rect x="1204.02" y="134.282" width="234.824" height="148.863" rx="3.95489" fill="#531B24" stroke="#EDD0A6" stroke-width="1.12997"/>
<rect x="12.8443" y="293.922" width="276.05" height="68.165" rx="15.2546" fill="#531B24" stroke="#EDD0A6" stroke-width="1.12997"/>
<rect x="597.028" y="293.922" width="276.05" height="68.165" rx="15.2546" fill="#531B24" stroke="#EDD0A6" stroke-width="1.12997"/>
<rect x="305.814" y="293.922" width="276.05" height="68.165" rx="15.2546" fill="#531B24" stroke="#EDD0A6" stroke-width="1.12997"/>
<rect x="889.996" y="293.922" width="276.05" height="68.165" rx="15.2546" fill="#531B24" stroke="#EDD0A6" stroke-width="1.12997"/>
<rect x="1182.97" y="293.922" width="276.05" height="68.165" rx="15.2546" fill="#531B24" stroke="#EDD0A6" stroke-width="1.12997"/>
<rect x="20.7386" y="241.295" width="19.0445" height="67.2878" fill="#531B24" stroke="#EDD0A6" stroke-width="1.12997"/>
<rect x="604.923" y="241.295" width="19.0445" height="67.2878" fill="#531B24" stroke="#EDD0A6" stroke-width="1.12997"/>
<rect x="313.708" y="240.417" width="19.0445" height="61.1478" fill="#531B24" stroke="#EDD0A6" stroke-width="1.12997"/>
<rect x="897.891" y="240.417" width="19.0445" height="61.1478" fill="#531B24" stroke="#EDD0A6" stroke-width="1.12997"/>
<rect x="1190.86" y="240.418" width="19.0445" height="61.1478" fill="#531B24" stroke="#EDD0A6" stroke-width="1.12997"/>
<rect x="266.342" y="244.803" width="19.0445" height="56.762" fill="#531B24" stroke="#EDD0A6" stroke-width="1.12997"/>
<rect x="850.525" y="244.803" width="19.0445" height="56.762" fill="#531B24" stroke="#EDD0A6" stroke-width="1.12997"/>
<rect x="559.31" y="244.803" width="19.0445" height="56.762" fill="#531B24" stroke="#EDD0A6" stroke-width="1.12997"/>
<rect x="1143.49" y="244.803" width="19.0445" height="56.762" fill="#531B24" stroke="#EDD0A6" stroke-width="1.12997"/>
<rect x="1436.46" y="244.803" width="19.0445" height="56.762" fill="#531B24" stroke="#EDD0A6" stroke-width="1.12997"/>
<rect x="205.819" y="363.218" width="45.359" height="102.374" fill="#531B24" stroke="#EDD0A6" stroke-width="1.12997"/>
<rect x="790" y="363.218" width="45.359" height="102.374" fill="#531B24" stroke="#EDD0A6" stroke-width="1.12997"/>
<rect x="498.786" y="363.218" width="45.359" height="102.374" fill="#531B24" stroke="#EDD0A6" stroke-width="1.12997"/>
<rect x="1082.97" y="363.218" width="45.359" height="102.374" fill="#531B24" stroke="#EDD0A6" stroke-width="1.12997"/>
<rect x="1375.94" y="363.218" width="45.359" height="102.374" fill="#531B24" stroke="#EDD0A6" stroke-width="1.12997"/>
<rect x="50.563" y="363.218" width="45.359" height="102.374" fill="#531B24" stroke="#EDD0A6" stroke-width="1.12997"/>
<rect x="634.745" y="363.218" width="45.359" height="102.374" fill="#531B24" stroke="#EDD0A6" stroke-width="1.12997"/>
<rect x="343.53" y="363.218" width="45.359" height="102.374" fill="#531B24" stroke="#EDD0A6" stroke-width="1.12997"/>
<rect x="927.713" y="363.218" width="45.359" height="102.374" fill="#531B24" stroke="#EDD0A6" stroke-width="1.12997"/>
<rect x="1220.68" y="363.218" width="45.359" height="102.374" fill="#531B24" stroke="#EDD0A6" stroke-width="1.12997"/>
<rect x="285.386" y="466.722" width="21.676" height="272.541" transform="rotate(90 285.386 466.722)" fill="#531B24" stroke="#EDD0A6" stroke-width="1.12997"/>
<rect x="869.568" y="466.721" width="21.676" height="272.541" transform="rotate(90 869.568 466.721)" fill="#531B24" stroke="#EDD0A6" stroke-width="1.12997"/>
<rect x="578.355" y="466.722" width="21.676" height="272.541" transform="rotate(90 578.355 466.722)" fill="#531B24" stroke="#EDD0A6" stroke-width="1.12997"/>
<rect x="1162.54" y="466.721" width="21.676" height="272.541" transform="rotate(90 1162.54 466.721)" fill="#531B24" stroke="#EDD0A6" stroke-width="1.12997"/>
<rect x="1455.51" y="466.722" width="21.676" height="272.541" transform="rotate(90 1455.51 466.722)" fill="#531B24" stroke="#EDD0A6" stroke-width="1.12997"/>
<path d="M268.721 133.278C268.721 187.375 216.253 231.393 151.309 231.393C86.3659 231.393 33.8975 187.375 33.8975 133.278C33.8975 79.1813 86.3659 35.1636 151.309 35.1636C216.253 35.1636 268.721 79.1813 268.721 133.278Z" fill="#531B24" stroke="#EDD0A6" stroke-width="1.12997"/>
<path d="M852.903 133.278C852.903 187.375 800.435 231.393 735.492 231.393C670.548 231.393 618.08 187.375 618.08 133.278C618.08 79.1813 670.548 35.1636 735.492 35.1636C800.435 35.1636 852.903 79.1813 852.903 133.278Z" fill="#531B24" stroke="#EDD0A6" stroke-width="1.12997"/>
<path d="M561.689 133.278C561.689 187.375 509.221 231.393 444.277 231.393C379.334 231.393 326.866 187.375 326.866 133.278C326.866 79.1813 379.334 35.1636 444.277 35.1636C509.221 35.1636 561.689 79.1813 561.689 133.278Z" fill="#531B24" stroke="#EDD0A6" stroke-width="1.12997"/>
<path d="M1145.87 133.278C1145.87 187.375 1093.4 231.393 1028.46 231.393C963.517 231.393 911.048 187.375 911.048 133.278C911.048 79.1813 963.517 35.1636 1028.46 35.1636C1093.4 35.1636 1145.87 79.1813 1145.87 133.278Z" fill="#531B24" stroke="#EDD0A6" stroke-width="1.12997"/>
<path d="M1438.84 133.278C1438.84 187.375 1386.37 231.393 1321.43 231.393C1256.48 231.393 1204.02 187.375 1204.02 133.278C1204.02 79.1813 1256.48 35.1636 1321.43 35.1636C1386.37 35.1636 1438.84 79.1813 1438.84 133.278Z" fill="#531B24" stroke="#EDD0A6" stroke-width="1.12997"/>
<rect x="56.7029" y="0.954511" width="188.335" height="84.8309" rx="41.8089" fill="#531B24" stroke="#EDD0A6" stroke-width="1.12997"/>
<rect x="640.886" y="0.954633" width="188.335" height="84.8309" rx="41.8089" fill="#531B24" stroke="#EDD0A6" stroke-width="1.12997"/>
<rect x="349.671" y="0.954511" width="188.335" height="84.8309" rx="41.8089" fill="#531B24" stroke="#EDD0A6" stroke-width="1.12997"/>
<rect x="933.853" y="0.954633" width="188.335" height="84.8309" rx="41.8089" fill="#531B24" stroke="#EDD0A6" stroke-width="1.12997"/>
<rect x="1226.82" y="0.954511" width="188.335" height="84.8309" rx="41.8089" fill="#531B24" stroke="#EDD0A6" stroke-width="1.12997"/>
<rect x="56.7029" y="0.954511" width="188.335" height="67.2878" rx="33.6439" fill="#531B24" stroke="#EDD0A6" stroke-width="1.12997"/>
<rect x="640.886" y="0.954633" width="188.335" height="67.2878" rx="33.6439" fill="#531B24" stroke="#EDD0A6" stroke-width="1.12997"/>
<rect x="349.671" y="0.954511" width="188.335" height="67.2878" rx="33.6439" fill="#531B24" stroke="#EDD0A6" stroke-width="1.12997"/>
<rect x="933.853" y="0.954633" width="188.335" height="67.2878" rx="33.6439" fill="#531B24" stroke="#EDD0A6" stroke-width="1.12997"/>
<rect x="1226.82" y="0.954511" width="188.335" height="67.2878" rx="33.6439" fill="#531B24" stroke="#EDD0A6" stroke-width="1.12997"/>
<rect x="0.564985" y="214.102" width="65.5335" height="32.2018" rx="16.1009" fill="#531B24" stroke="#EDD0A6" stroke-width="1.12997"/>
<path d="M288.895 306.515C288.895 311.551 285.225 316.479 278.258 321.066C271.315 325.638 261.229 329.777 248.716 333.262C223.699 340.229 189.105 344.545 150.87 344.545C112.636 344.545 78.0417 340.229 53.0239 333.262C40.511 329.777 30.4259 325.638 23.482 321.066C16.5155 316.479 12.8453 311.551 12.8453 306.515C12.8453 301.48 16.5155 296.551 23.482 291.964C30.4259 287.393 40.511 283.254 53.0239 279.769C78.0417 272.802 112.636 268.486 150.87 268.486C189.105 268.486 223.699 272.802 248.716 279.769C261.229 283.254 271.315 287.393 278.258 291.964C285.225 296.551 288.895 301.48 288.895 306.515Z" fill="#531B24" stroke="#EDD0A6" stroke-width="1.12997"/>
<path d="M873.078 306.516C873.078 311.551 869.407 316.48 862.441 321.066C855.497 325.638 845.412 329.777 832.899 333.262C807.881 340.229 773.287 344.545 735.053 344.545C696.818 344.545 662.224 340.229 637.206 333.262C624.693 329.777 614.608 325.638 607.664 321.066C600.698 316.48 597.028 311.551 597.028 306.516C597.028 301.48 600.698 296.551 607.664 291.965C614.608 287.393 624.693 283.254 637.206 279.769C662.224 272.802 696.818 268.486 735.053 268.486C773.287 268.486 807.881 272.802 832.899 279.769C845.412 283.254 855.497 287.393 862.441 291.965C869.407 296.551 873.078 301.48 873.078 306.516Z" fill="#531B24" stroke="#EDD0A6" stroke-width="1.12997"/>
<path d="M581.863 306.515C581.863 311.551 578.193 316.479 571.227 321.066C564.283 325.638 554.198 329.777 541.685 333.262C516.667 340.229 482.073 344.545 443.838 344.545C405.604 344.545 371.01 340.229 345.992 333.262C333.479 329.777 323.394 325.638 316.45 321.066C309.484 316.479 305.814 311.551 305.814 306.515C305.814 301.48 309.484 296.551 316.45 291.964C323.394 287.393 333.479 283.254 345.992 279.769C371.01 272.802 405.604 268.486 443.838 268.486C482.073 268.486 516.667 272.802 541.685 279.769C554.198 283.254 564.283 287.393 571.227 291.964C578.193 296.551 581.863 301.48 581.863 306.515Z" fill="#531B24" stroke="#EDD0A6" stroke-width="1.12997"/>
<path d="M1166.05 306.516C1166.05 311.551 1162.38 316.48 1155.41 321.066C1148.47 325.638 1138.38 329.777 1125.87 333.262C1100.85 340.229 1066.26 344.545 1028.02 344.545C989.787 344.545 955.193 340.229 930.175 333.262C917.662 329.777 907.577 325.638 900.633 321.066C893.666 316.48 889.996 311.551 889.996 306.516C889.996 301.48 893.666 296.551 900.633 291.965C907.577 287.393 917.662 283.254 930.175 279.769C955.193 272.802 989.787 268.486 1028.02 268.486C1066.26 268.486 1100.85 272.802 1125.87 279.769C1138.38 283.254 1148.47 287.393 1155.41 291.965C1162.38 296.551 1166.05 301.48 1166.05 306.516Z" fill="#531B24" stroke="#EDD0A6" stroke-width="1.12997"/>
<path d="M1459.02 306.516C1459.02 311.551 1455.35 316.48 1448.38 321.066C1441.43 325.638 1431.35 329.777 1418.84 333.262C1393.82 340.229 1359.22 344.545 1320.99 344.545C1282.76 344.545 1248.16 340.229 1223.14 333.262C1210.63 329.777 1200.55 325.638 1193.6 321.066C1186.64 316.48 1182.97 311.551 1182.97 306.516C1182.97 301.48 1186.64 296.551 1193.6 291.965C1200.55 287.393 1210.63 283.254 1223.14 279.769C1248.16 272.802 1282.76 268.486 1320.99 268.486C1359.22 268.486 1393.82 272.802 1418.84 279.769C1431.35 283.254 1441.43 287.393 1448.38 291.965C1455.35 296.551 1459.02 301.48 1459.02 306.516Z" fill="#531B24" stroke="#EDD0A6" stroke-width="1.12997"/>
<rect x="240.026" y="214.102" width="110.268" height="32.2018" rx="16.1009" fill="#531B24" stroke="#EDD0A6" stroke-width="1.12997"/>
<rect x="824.21" y="214.102" width="110.268" height="32.2018" rx="16.1009" fill="#531B24" stroke="#EDD0A6" stroke-width="1.12997"/>
<rect x="532.996" y="214.102" width="110.268" height="32.2018" rx="16.1009" fill="#531B24" stroke="#EDD0A6" stroke-width="1.12997"/>
<rect x="1117.18" y="214.102" width="110.268" height="32.2018" rx="16.1009" fill="#531B24" stroke="#EDD0A6" stroke-width="1.12997"/>
<rect x="1411.9" y="213.225" width="65.5335" height="32.2018" rx="16.1009" fill="#531B24" stroke="#EDD0A6" stroke-width="1.12997"/>
<path d="M134.607 184.177V182.694L141.528 180.717V126.442L131.147 133.758L129.17 131.286L147.163 114.974H157.84V180.717L164.76 182.694V184.177H134.607Z" fill="#EDD0A6"/>
<path d="M419.925 179.728C419.925 175.84 420.682 172.314 422.198 169.15C423.78 165.921 425.691 163.12 427.932 160.747C430.173 158.374 433.106 155.573 436.731 152.344C440.092 149.378 442.728 146.906 444.64 144.929C446.551 142.886 448.166 140.612 449.484 138.108C450.802 135.538 451.461 132.769 451.461 129.804C451.461 125.454 450.407 122.059 448.298 119.621C446.189 117.182 443.453 115.963 440.092 115.963C438.181 115.963 436.237 116.227 434.259 116.754L432.183 117.446V133.264L430.898 133.56C429.844 133.692 428.954 133.758 428.229 133.758C425.988 133.758 424.176 133.099 422.792 131.781C421.473 130.397 420.814 128.584 420.814 126.343C420.814 124.234 421.605 122.191 423.187 120.214C424.835 118.237 427.24 116.622 430.404 115.37C433.633 114.118 437.522 113.492 442.069 113.492C450.967 113.492 457.558 115.271 461.842 118.83C466.125 122.389 468.267 127.365 468.267 133.758C468.267 137.778 467.213 141.238 465.104 144.138C463.061 147.038 460.523 149.444 457.492 151.355C454.526 153.267 450.538 155.441 445.529 157.88C441.311 159.923 437.884 161.736 435.248 163.317C432.678 164.833 430.272 166.679 428.031 168.854C425.856 171.029 424.307 173.5 423.385 176.268H459.963C460.425 172.709 461.545 169.743 463.324 167.371C464.049 166.25 464.906 165.262 465.895 164.405H468.861V184.177H419.925V179.728Z" fill="#EDD0A6"/>
<path d="M728.827 185.66C724.28 185.66 720.391 185.034 717.162 183.782C713.998 182.529 711.593 180.915 709.945 178.937C708.363 176.96 707.572 174.917 707.572 172.808C707.572 170.567 708.231 168.788 709.55 167.47C710.934 166.085 712.746 165.393 714.987 165.393C715.514 165.393 716.041 165.459 716.569 165.591C717.096 165.657 717.458 165.69 717.656 165.69L718.941 165.888V181.705C719.007 181.705 719.699 181.969 721.017 182.496C722.731 182.958 724.675 183.188 726.85 183.188C731.464 183.188 734.99 181.804 737.428 179.036C739.933 176.202 741.185 171.984 741.185 166.382C741.185 160.648 739.966 156.331 737.527 153.431C735.154 150.531 731.925 149.081 727.839 149.081H722.896V146.61H727.839C730.805 146.61 733.276 145.292 735.253 142.655C737.231 140.019 738.219 136.23 738.219 131.286C738.219 126.343 737.198 122.554 735.154 119.918C733.111 117.281 730.508 115.963 727.344 115.963C725.631 115.963 723.983 116.227 722.401 116.754C722.204 116.82 721.545 117.051 720.424 117.446V133.264L719.139 133.56C718.085 133.692 717.195 133.758 716.47 133.758C714.229 133.758 712.417 133.099 711.032 131.781C709.714 130.397 709.055 128.584 709.055 126.343C709.055 124.3 709.846 122.29 711.428 120.313C713.01 118.336 715.316 116.721 718.348 115.469C721.446 114.151 725.104 113.492 729.322 113.492C734.858 113.492 739.537 114.315 743.36 115.963C747.248 117.545 750.148 119.687 752.06 122.389C754.037 125.091 755.026 128.057 755.026 131.286C755.026 135.043 754.07 138.042 752.159 140.283C750.247 142.458 747.743 144.204 744.645 145.522C741.613 146.709 738.153 147.401 734.265 147.599V148.093C738.615 148.291 742.569 149.048 746.128 150.367C754.037 153.53 757.991 158.869 757.991 166.382C757.991 172.182 755.586 176.861 750.774 180.42C746.029 183.913 738.713 185.66 728.827 185.66Z" fill="#EDD0A6"/>
<path d="M1022.12 184.177V182.694L1029.04 180.717V165.888H1000.87L998.892 162.922L1035.97 113.986H1045.36V161.439H1055.74V165.888H1045.36V180.717L1052.28 182.694V184.177H1022.12ZM1004.33 161.439H1029.04V128.815L1004.33 161.439Z" fill="#EDD0A6"/>
<path d="M1318.53 185.66C1313.98 185.66 1310.09 185.034 1306.86 183.782C1303.7 182.529 1301.3 180.915 1299.65 178.937C1298.07 176.96 1297.27 174.917 1297.27 172.808C1297.27 170.567 1297.93 168.788 1299.25 167.47C1300.64 166.085 1302.45 165.393 1304.69 165.393C1305.22 165.393 1305.74 165.459 1306.27 165.591C1306.8 165.657 1307.16 165.69 1307.36 165.69L1308.64 165.888V181.705C1308.71 181.705 1309.4 181.969 1310.72 182.496C1312.43 182.958 1314.38 183.188 1316.55 183.188C1320.51 183.188 1323.64 181.574 1325.94 178.344C1328.25 175.049 1329.4 169.908 1329.4 162.922C1329.4 156.002 1328.22 150.993 1325.85 147.895C1323.47 144.732 1320.05 143.15 1315.56 143.15C1313.85 143.15 1312.24 143.446 1310.72 144.04C1309.2 144.633 1307.59 145.424 1305.88 146.412C1304.49 147.269 1303.11 148.324 1301.72 149.576L1299.75 148.093L1303.7 114.974H1332.86C1333.33 111.415 1334.45 108.45 1336.23 106.077C1336.95 104.957 1337.81 103.968 1338.8 103.111H1341.76V122.389H1305.88L1303.21 145.127C1304.13 144.468 1305.48 143.743 1307.26 142.952C1310.95 141.436 1314.38 140.678 1317.54 140.678C1327.16 140.678 1334.35 142.655 1339.09 146.61C1343.84 150.498 1346.21 155.936 1346.21 162.922C1346.21 170.04 1343.87 175.609 1339.19 179.629C1334.51 183.65 1327.63 185.66 1318.53 185.66Z" fill="#EDD0A6"/>
</svg>
