<svg width="1516" height="691" viewBox="0 0 1516 691" fill="none" xmlns="http://www.w3.org/2000/svg">
<path fill-rule="evenodd" clip-rule="evenodd" d="M601.787 567.372C601.21 565.326 600.76 553.3 600.787 540.649C600.835 518.52 600.983 517.299 604.695 508.49C612.18 490.719 625.401 480.41 640.632 480.468C657.838 480.533 670.879 491.303 678.108 511.415C681.65 521.273 683.012 548.527 680.624 561.778C679.7 566.901 678.413 571.093 677.765 571.093C677.116 571.093 670.969 569.495 664.103 567.542C653.106 564.414 649.893 564.069 637.094 564.641C627.062 565.091 620.051 566.189 614.43 568.192C603.991 571.911 603.05 571.85 601.787 567.372ZM604.774 551.405C600.982 516.3 614.127 488.466 636.171 484.918L641.11 484.124L640.709 494.797L640.306 505.47L636.294 505.039C634.087 504.803 630.556 503.391 628.448 501.903C624.171 498.883 623.709 500.025 626.517 506.689C628.721 511.918 633.43 515.618 637.882 515.618C640.523 515.618 640.989 514.907 640.989 510.882C640.989 506.876 641.461 506.145 644.059 506.138C645.746 506.133 648.908 505.209 651.084 504.084C656.012 501.535 656.745 502.19 654.416 507.058C653.349 509.288 650.19 512.01 646.837 513.588L641.087 516.294L641.038 534.816L640.989 553.337L634.507 554.162C628.707 554.899 616.762 557.465 608.706 559.701C605.957 560.466 605.691 559.906 604.774 551.405ZM612.335 541.389C612.335 537.967 615.826 533.224 619.432 531.742C622.75 530.378 624.237 530.466 628.007 532.249C632.046 534.16 635.45 539.15 633.818 540.768C633.49 541.094 630.926 540.41 628.121 539.247C623.32 537.258 622.741 537.298 618.282 539.906C612.913 543.048 612.335 543.191 612.335 541.389ZM663.023 539.126C659.369 537.545 657.499 537.459 653.721 538.695C647.733 540.655 647.052 539.94 650.62 535.444C654.183 530.952 661.475 530.522 665.548 534.56C667.701 536.695 669.505 541.723 667.936 541.215C667.748 541.155 665.537 540.215 663.023 539.126Z" fill="#EDD0A6"/>
<path fill-rule="evenodd" clip-rule="evenodd" d="M889.032 181.191C888.335 182.317 886.655 192.702 885.296 204.269C882.523 227.91 885.015 257.092 891.164 272.974C897.055 288.182 909.157 304.169 919.747 310.733C927.627 315.617 932.598 317.047 943.895 317.686C956.144 318.379 959.714 317.711 969.597 312.877C999.323 298.339 1013.57 258.51 1008.21 204.91C1006.9 191.784 1005.33 180.552 1004.73 179.948C1004.12 179.344 996.872 180.955 988.613 183.527C979.204 186.454 965.838 188.6 952.814 189.272C932.666 190.312 923.58 188.931 894.718 180.444C892.285 179.729 889.727 180.064 889.032 181.191ZM893.855 196.318C887.259 241.148 894.137 276.937 913.217 297.082C920.432 304.699 933.686 311.701 941.022 311.773C945.281 311.815 945.676 310.87 945.676 300.609C945.676 289.584 945.554 289.358 938.277 286.956C930.734 284.469 922.947 274.806 922.932 267.917C922.924 264.615 923.462 264.657 929.646 268.426C933.344 270.679 938.464 272.525 941.022 272.529C945.653 272.538 945.676 272.383 945.676 239.552V206.568L937.92 205.411C929.884 204.213 906.764 199.196 898.621 196.882C896.062 196.155 893.917 195.902 893.855 196.318ZM909.387 227.995C906.594 230.786 904.309 234.855 904.309 237.038C904.309 240.95 904.429 240.95 912.375 237.017C919.904 233.294 920.961 233.244 928.207 236.271C932.476 238.055 936.36 239.122 936.838 238.644C938.445 237.038 931.386 225.502 928.002 224.203C921.278 221.625 914.347 223.035 909.387 227.995ZM968.893 224.538C964.227 225.283 956.479 234.408 958.663 236.589C959.288 237.216 961.681 236.722 963.979 235.492C969.752 232.403 975.822 232.696 983.01 236.412C989.443 239.736 990.744 238.099 987.087 231.27C984.716 226.844 975.601 223.469 968.893 224.538ZM964.897 268.624C963.638 269.883 959.495 271.545 955.693 272.317C949.778 273.516 948.686 274.678 948.131 280.363C947.581 285.999 948.162 287.01 951.958 287.01C957.151 287.01 970.496 274.508 970.496 269.643C970.496 265.792 968.155 265.368 964.897 268.624Z" fill="#EDD0A6"/>
<path fill-rule="evenodd" clip-rule="evenodd" d="M1370.26 167.645L1357.69 169.486L1345.95 161.718L1334.22 153.95L1320.51 159.617C1307.18 165.123 1306.47 165.198 1295.58 162.28C1289.41 160.63 1283.23 158.84 1281.85 158.306C1280.25 157.687 1275.53 160.909 1268.83 167.179L1258.32 177.023L1243.23 177.538C1228.49 178.042 1228.18 178.15 1229.97 182.085C1232.06 186.71 1303.83 308.029 1308.42 314.702C1311.34 318.954 1311.6 319.044 1315.96 317.221C1322 314.693 1327.64 317.296 1330.05 323.726L1332.02 328.996L1410.73 307.588C1454.03 295.815 1489.53 285.455 1489.62 284.567C1489.71 283.679 1485.51 278.636 1480.29 273.363L1470.79 263.773L1469.52 248.914L1468.25 234.056L1455.73 227.53L1443.22 221.007L1438.01 207.229L1432.81 193.451L1418.54 190.915L1404.27 188.38L1395.79 177.854C1391.12 172.065 1386.3 166.984 1385.06 166.566C1383.83 166.147 1377.17 166.632 1370.26 167.645ZM1369.74 172.124C1359.76 173.778 1358.39 174.487 1357.62 178.402C1356.79 182.651 1347.96 220.26 1341.59 246.68C1339.03 257.317 1339 259.632 1341.4 260.619C1344.14 261.746 1345.16 259.649 1363.04 216.147C1373.35 191.037 1381.62 170.439 1381.39 170.375C1381.17 170.311 1375.93 171.097 1369.74 172.124ZM1367.63 218.144C1349.69 261.804 1349.03 263.756 1351.83 264.908C1353.58 265.626 1355.67 264.85 1357.04 262.977C1359.79 259.2 1395.62 198.807 1398.17 193.635C1399.64 190.664 1398.71 188.376 1393.17 181.285L1386.36 172.583L1367.63 218.144ZM1319.53 164.774L1309.81 169.633L1313.01 213.567C1314.77 237.733 1316.57 257.638 1317 257.803C1317.44 257.968 1319.03 257.885 1320.52 257.621C1323.28 257.132 1323.51 255.159 1329.62 177.544C1330.36 168.148 1330.58 160.337 1330.11 160.188C1329.64 160.039 1324.88 162.102 1319.53 164.774ZM1398.96 237.694C1370.28 272.236 1368.58 274.602 1370.77 277.044C1372.05 278.472 1373.41 279.437 1373.79 279.187C1375.55 278.019 1438.17 222.299 1438.43 221.663C1438.93 220.439 1431.74 201.868 1430.58 201.39C1429.98 201.143 1415.75 217.48 1398.96 237.694ZM1269.71 172.09L1260.84 179.923L1277.99 221.033C1292.37 255.506 1295.64 261.989 1298.21 261.181C1300.83 260.36 1299.75 253.543 1290.9 214.898C1285.19 189.971 1280.08 168.38 1279.55 166.916C1278.8 164.857 1276.57 166.027 1269.71 172.09ZM1457.72 243.747C1454.54 245.676 1443.11 252.984 1432.31 259.987C1421.51 266.992 1405.81 277.111 1397.42 282.474C1383.18 291.581 1382.3 292.442 1384.08 295.49C1385.79 298.417 1387.07 298.252 1396.49 293.901C1402.27 291.23 1420.39 283.196 1436.77 276.048L1466.55 263.051L1465.69 251.921C1465.22 245.8 1464.53 240.668 1464.16 240.516C1463.79 240.364 1460.89 241.817 1457.72 243.747ZM1337.35 265.74C1336.79 267.251 1335.1 274.086 1333.59 280.928L1330.85 293.368L1336.93 279.132C1341.93 267.418 1342.59 264.728 1340.69 263.944C1339.41 263.42 1337.91 264.229 1337.35 265.74ZM1340.73 284.179L1333.72 301.783L1340.47 290.99C1351.8 272.883 1353.02 270.041 1350.22 268.202C1347.96 266.726 1347.08 268.21 1340.73 284.179ZM1328.8 262.45C1327.94 263.073 1326.74 270.56 1326.13 279.09C1324.94 295.927 1326.05 295.187 1330.52 276.183C1333.18 264.818 1332.55 259.728 1328.8 262.45ZM1350.12 283.272C1340.36 299.647 1340.69 300.893 1351.42 288.252C1361.31 276.598 1362.26 274.618 1358.69 273.151C1357.33 272.594 1354.46 275.99 1350.12 283.272ZM1318.2 261.772C1316.83 262.773 1318.38 296.384 1319.83 296.981C1320.12 297.098 1320.87 289.512 1321.5 280.121C1322.59 263.832 1321.76 259.191 1318.2 261.772ZM1355.04 290.662C1349.86 296.999 1344.76 303.248 1343.71 304.55C1342.66 305.851 1348 301.728 1355.58 295.388C1363.15 289.047 1369.59 283.353 1369.9 282.732C1370.2 282.11 1369.11 281.049 1367.46 280.372C1365.04 279.378 1362.64 281.371 1355.04 290.662ZM1367.22 290.675C1361.15 295.504 1346.19 309.622 1346.86 309.896C1348.48 310.561 1375.79 290.878 1375.52 289.241C1374.94 285.708 1373.06 286.033 1367.22 290.675ZM1308.39 263.374C1307.05 264.343 1310.72 285.63 1313.58 293.505C1314.66 296.486 1314.66 288.722 1313.59 274.97C1312.69 263.474 1311.6 261.039 1308.39 263.374ZM1299.1 265.984C1296.54 267.345 1297.14 269.979 1303.3 284.424L1310.48 301.277L1307.46 287.375C1302.33 263.702 1302.51 264.168 1299.1 265.984ZM1375.62 296.78C1374.33 297.527 1367.91 301.634 1361.36 305.907L1349.46 313.677L1364.98 307.428C1373.51 303.99 1380.55 300.42 1380.61 299.494C1380.8 296.76 1378.14 295.316 1375.62 296.78ZM1366.81 312.173C1349.15 319.865 1349.21 319.89 1371.11 313.954C1382.39 310.898 1385.49 309.405 1384.48 307.513C1383.49 305.644 1379.22 306.772 1366.81 312.173ZM1289.29 270.115C1287.3 271.561 1287.15 271.195 1295.93 286.066C1299.59 292.267 1302.82 296.754 1303.12 296.039C1303.74 294.519 1293.55 269.901 1292.04 269.28C1291.48 269.049 1290.24 269.425 1289.29 270.115Z" fill="#EDD0A6"/>
<path fill-rule="evenodd" clip-rule="evenodd" d="M185.102 590.455L197.135 594.512L204.073 606.758L211.008 619.003L225.8 620.171C240.171 621.306 240.838 621.561 249.226 629.103C253.975 633.371 258.669 637.767 259.656 638.87C260.801 640.146 266.475 639.418 275.285 636.865L289.115 632.858L302.799 639.243C316.162 645.477 316.49 645.523 316.684 641.206C316.912 636.134 307.969 495.461 306.907 487.434C306.232 482.319 306.047 482.498 301.339 482.147C294.808 481.66 291.457 476.557 292.228 469.735L292.228 464.405L212.491 447.373C168.565 438.232 132.229 431.367 131.744 432.116C131.259 432.866 132.714 439.265 134.976 446.333L139.091 459.186L133.486 473.006L127.882 486.825L136.078 498.318L144.275 509.809L142.666 524.448L141.054 539.088L152.623 547.819L164.191 556.55L166.977 569.777C168.509 577.053 170.506 583.769 171.416 584.701C172.324 585.634 178.483 588.224 185.102 590.455ZM187.592 586.696C197.236 589.748 198.778 589.737 201.239 586.596C203.911 583.188 228.836 553.674 246.49 533.013C253.599 524.695 254.677 522.646 252.985 520.679C251.052 518.431 249.192 519.837 213.531 550.501C192.948 568.201 176.244 582.812 176.413 582.971C176.582 583.129 181.612 584.806 187.592 586.696ZM210.34 546.636C246.13 515.86 247.603 514.419 245.628 512.123C244.396 510.69 242.18 510.433 240.113 511.483C235.947 513.6 176.629 551.18 172.008 554.631C169.352 556.613 169.141 559.073 170.869 567.909L172.991 578.753L210.34 546.636ZM229.01 616.018L239.877 616.096L256.951 575.489C266.341 553.153 273.765 534.597 273.45 534.251C273.132 533.905 271.685 533.261 270.231 532.817C267.547 532.001 266.451 533.657 225.804 600.059C220.883 608.097 217.146 614.96 217.5 615.307C217.853 615.654 223.032 615.974 229.01 616.018ZM191.283 515.004C232.515 497.227 235.098 495.887 234.253 492.718C233.76 490.864 232.988 489.389 232.538 489.441C230.434 489.681 149.359 510.945 148.838 511.393C147.834 512.256 145.825 532.071 146.644 533.023C147.067 533.516 167.156 525.407 191.283 515.004ZM276.733 632.093L288.19 629.134L291.548 584.716C294.364 547.471 294.393 540.211 291.729 539.762C289.022 539.305 286.891 545.87 277.255 584.327C271.04 609.133 265.802 630.694 265.615 632.241C265.352 634.417 267.864 634.383 276.733 632.093ZM141.664 482.965C145.37 482.686 158.874 481.359 171.676 480.014C184.476 478.668 203.057 476.769 212.964 475.793C229.785 474.134 230.963 473.766 230.76 470.244C230.566 466.861 229.346 466.425 218.978 466.032C212.617 465.792 192.818 464.731 174.979 463.674L142.546 461.754L138.263 472.062C135.909 477.733 134.194 482.618 134.455 482.922C134.716 483.225 137.959 483.245 141.664 482.965ZM258.913 517.948C260.096 516.856 264.703 511.53 269.151 506.117L277.238 496.275L265.366 506.206C255.596 514.378 253.783 516.474 255.127 518.037C256.026 519.082 257.73 519.042 258.913 517.948ZM264.268 499.985L278.496 487.473L267.584 494.03C249.273 505.029 246.902 507.011 248.565 509.921C249.904 512.258 251.361 511.335 264.268 499.985ZM265.047 524.761C266.093 524.595 270.556 518.465 274.965 511.138C283.668 496.674 282.337 496.828 269.742 511.742C262.21 520.661 260.469 525.487 265.047 524.761ZM255.483 496.532C271.606 486.363 271.88 485.104 256.587 491.507C242.488 497.409 240.741 498.741 243.257 501.667C244.212 502.778 248.314 501.055 255.483 496.532ZM274.179 530.169C275.863 529.902 289.719 499.241 288.696 498.051C288.494 497.816 284.386 504.238 279.564 512.321C271.202 526.342 269.841 530.857 274.179 530.169ZM254.454 487.716C261.945 484.418 269.321 481.16 270.846 480.475C272.369 479.791 265.741 481.044 256.117 483.261C246.493 485.478 238.167 487.63 237.612 488.045C237.058 488.46 237.556 489.905 238.717 491.255C240.422 493.237 243.466 492.551 254.454 487.716ZM243.604 482.182C251.205 480.631 270.934 474.829 270.463 474.282C269.323 472.956 236.055 478.112 235.552 479.693C234.468 483.106 236.296 483.671 243.604 482.182ZM283.655 533.193C285.285 532.935 291.673 512.301 292.696 503.986C293.083 500.839 289.557 507.755 284.277 520.499C279.863 531.151 279.732 533.817 283.655 533.193ZM293.119 535.08C296.014 535.026 296.675 532.407 297.739 516.741L298.981 498.464L295.364 512.221C289.202 535.647 289.251 535.149 293.119 535.08ZM238.887 472.932C240.375 472.851 247.953 472.099 255.728 471.26L269.864 469.735L253.198 468.267C244.032 467.459 236.142 467.451 235.667 468.248C234.259 470.599 235.971 473.091 238.887 472.932ZM253.712 463.204C272.948 464.361 272.905 464.311 250.693 459.669C239.252 457.277 235.814 457.202 235.851 459.344C235.886 461.458 240.205 462.391 253.712 463.204ZM303.734 535.846C306.163 535.46 306.132 535.855 305.053 518.62C304.601 511.433 303.754 505.967 303.167 506.471C301.922 507.542 299.838 534.105 300.902 535.342C301.299 535.803 302.572 536.03 303.734 535.846Z" fill="#EDD0A6"/>
<path fill-rule="evenodd" clip-rule="evenodd" d="M120.025 48.4232C85.9728 65.0083 54.6812 85.4117 50.1332 93.9951C44.7415 104.173 45.4618 106.178 68.7238 145.629C99.2349 197.376 112.791 222.63 111.496 225.304C110.838 226.664 103.468 228.632 92.5395 230.365C82.7046 231.923 72.7134 234.474 70.3349 236.036C67.9575 237.596 64.2654 243 62.1318 248.044C58.5561 256.497 58.5613 258.091 62.1822 268.373C67.4533 283.341 75.2131 291.087 93.2466 299.381C109.385 306.803 130.719 310.314 149.422 308.624C166.695 307.064 205.973 295.875 225.497 286.954C285.836 259.382 329.773 206.884 318.823 175.443C315.042 164.586 302.598 154.883 289.889 152.881C284.042 151.96 267.669 156.97 247.422 165.876C244.129 167.326 242.491 166.685 239.807 162.898C237.926 160.245 226.651 131.691 214.75 99.445C202.851 67.1984 191.832 39.5978 190.262 38.1096C188.694 36.6225 182.362 34.9301 176.194 34.3494C166.963 33.4819 161.53 34.3757 145.504 39.3975C134.795 42.7521 123.329 46.8154 120.025 48.4232ZM103.916 62.0054C84.8373 72.1626 59.1679 90.0987 55.687 95.7059C49.5976 105.518 65.4612 108.987 91.7538 103.596C109.679 99.9196 141.415 85.2079 164.534 69.8563C183.58 57.2082 191.315 44.9608 183.304 40.1317C174.113 34.5929 135.341 45.2749 103.916 62.0054ZM187.245 56.8183C183.449 66.9622 140.328 92.3154 107.664 103.609C87.4995 110.579 75.8511 112.671 64.192 111.412C60.3755 111.001 56.9498 111.286 56.5827 112.047C55.8133 113.637 66.2047 132.5 86.8796 167.035C94.7997 180.267 105.607 199.408 110.897 209.573C116.186 219.737 121.807 229.244 123.387 230.699C128.328 235.244 150.755 233.288 173.94 226.286C198.139 218.981 225.216 204.35 236.447 192.513C244.063 184.485 244.757 188.189 227.753 146.044C222.096 132.024 211.548 105.248 204.312 86.5392C197.075 67.8304 190.561 52.7321 189.832 52.9858C189.103 53.2396 187.94 54.9642 187.245 56.8183ZM264.8 164.415C262.486 165.694 257.229 168.421 253.12 170.478L245.648 174.215L249.812 182.128C258.804 199.209 258.809 199.338 250.962 208.254C225.562 237.113 163.018 262.855 135.761 255.668C128.728 253.815 126.319 251.267 118.899 237.834L115.53 231.735L98.6373 234.364C74.0818 238.184 71.5531 239.362 67.7431 248.739C65.9554 253.138 64.8013 259.329 65.1795 262.495C66.7316 275.523 83.5467 291.2 103.292 298.034C127.691 306.479 144.591 305.998 183.131 295.762C239.448 280.804 280.051 253.78 306.258 213.812C322.049 189.73 316.208 166.395 292.52 158.92C286.662 157.072 273.302 159.72 264.8 164.415ZM240.704 194.93C239.541 197.332 242.971 206.461 245.224 206.96C248.132 207.603 251.121 198.803 249.149 195.406C247.33 192.268 242.134 191.976 240.704 194.93ZM129.072 245.072C132.318 250.62 138.607 253.909 141.52 251.584C145.298 248.564 133.802 236.908 128.773 238.66C126.496 239.453 126.559 240.774 129.072 245.072ZM230.591 210.28C232.238 215.007 237.766 216.577 239.578 212.834C241.304 209.27 236.092 203.289 232.386 204.58C229.973 205.42 229.463 207.04 230.591 210.28ZM221.184 216.812C222.987 220.733 224.934 222.399 227.303 222.047C230.187 221.616 230.328 220.555 228.129 215.776C226.326 211.855 224.379 210.189 222.011 210.541C219.126 210.972 218.986 212.034 221.184 216.812ZM144.779 245.258C147.603 251.356 154.087 254.156 156.039 250.124C158.052 245.964 151.211 237.947 146.432 238.868C142.69 239.589 142.498 240.332 144.779 245.258ZM208.637 218.128C207.285 220.921 210.364 227.648 213.534 228.829C218.116 230.54 220.411 226.016 217.752 220.503C215.476 215.784 210.411 214.462 208.637 218.128ZM159.643 242.87C161.935 249.452 165.881 251.262 170.127 247.678C173.747 244.621 166.652 234.633 161.56 235.622C157.926 236.328 157.683 237.245 159.643 242.87ZM196.704 224.585C195.964 227.913 202.563 236.019 205.25 235.083C209.106 233.74 204.439 221.583 200.299 222.187C198.559 222.442 196.942 223.52 196.704 224.585ZM171.927 237.798C173.714 242.93 178.836 247.289 181.845 246.241C185.569 244.945 185.73 241.524 182.331 235.999C179.991 232.199 178.326 231.427 174.974 232.594C171.788 233.704 170.981 235.082 171.927 237.798ZM187.029 235.053C189.197 241.277 193.185 243.194 196.214 239.467C198.509 236.644 192.02 227.811 188.076 228.386C185.573 228.751 185.344 230.212 187.029 235.053Z" fill="#EDD0A6"/>
</svg>
