<svg width="1493" height="189" viewBox="0 0 1493 189" fill="none" xmlns="http://www.w3.org/2000/svg">
<path d="M546.193 48.323L611.951 187.183L677.709 48.323H546.193Z" fill="#531B24" stroke="#EDD0A6"/>
<path d="M816.554 48.3254L882.312 187.185L948.07 48.3254H816.554Z" fill="#531B24" stroke="#EDD0A6"/>
<path d="M682.979 48.323L748.254 187.176L813.529 48.323H682.979Z" fill="#531B24" stroke="#EDD0A6"/>
<path d="M951.111 48.3279L1016.39 187.181L1081.66 48.3279H951.111Z" fill="#531B24" stroke="#EDD0A6"/>
<path d="M1219.23 48.3279L1284.51 187.181L1349.78 48.3279H1219.23Z" fill="#531B24" stroke="#EDD0A6"/>
<path d="M1084.68 48.3279L1150.44 187.188L1216.2 48.3279H1084.68Z" fill="#531B24" stroke="#EDD0A6"/>
<path d="M1351.44 48.53L1416.72 187.383L1481.99 48.53H1351.44Z" fill="#531B24" stroke="#EDD0A6"/>
<path d="M144.224 48.342L209.499 187.195L274.774 48.342H144.224Z" fill="#531B24" stroke="#EDD0A6"/>
<path d="M11.0074 48.323L76.2823 187.176L141.557 48.323H11.0074Z" fill="#531B24" stroke="#EDD0A6"/>
<path d="M412.347 48.344L477.622 187.197L542.897 48.344H412.347Z" fill="#531B24" stroke="#EDD0A6"/>
<path d="M277.799 48.342L343.557 187.202L409.315 48.342H277.799Z" fill="#531B24" stroke="#EDD0A6"/>
</svg>
