<svg width="1480" height="187" viewBox="0 0 1480 187" fill="none" xmlns="http://www.w3.org/2000/svg">
<path d="M606.622 186.243L672.59 46.9388H540.653L606.622 186.243Z" fill="#EDD0A6"/>
<path d="M874.629 186.246L940.597 46.9412H808.66L874.629 186.246Z" fill="#EDD0A6"/>
<path d="M741.738 186.243L807.225 46.9388H676.251L741.738 186.243Z" fill="#EDD0A6"/>
<path d="M1007.53 186.248L1073.02 46.9434H942.047L1007.53 186.248Z" fill="#EDD0A6"/>
<path d="M1273.32 186.249L1338.81 46.9445H1207.83L1273.32 186.249Z" fill="#EDD0A6"/>
<path d="M1140.42 186.248L1206.39 46.9434H1074.46L1140.42 186.248Z" fill="#EDD0A6"/>
<path d="M1404.38 186.449L1469.87 47.1451H1338.89L1404.38 186.449Z" fill="#EDD0A6"/>
<path d="M207.675 186.262L273.162 46.9579H142.188L207.675 186.262Z" fill="#EDD0A6"/>
<path d="M75.6181 186.245L141.105 46.9401H10.1309L75.6181 186.245Z" fill="#EDD0A6"/>
<path d="M473.464 186.265L538.951 46.9601H407.976L473.464 186.265Z" fill="#EDD0A6"/>
<path d="M340.566 186.264L406.535 46.9591H274.597L340.566 186.264Z" fill="#EDD0A6"/>
</svg>
