<svg width="1896" height="295" viewBox="0 0 1896 295" fill="none" xmlns="http://www.w3.org/2000/svg">
<path fill-rule="evenodd" clip-rule="evenodd" d="M546.182 1.53094C544.455 2.38688 538.334 6.68755 532.58 11.0868C520.791 20.0994 502.481 32.3238 492.297 37.9797C479.506 45.0831 458.214 51.7523 431.088 57.1523C412.92 60.768 406.499 63.8267 406.499 68.8627C406.499 69.3536 409.772 75.0137 413.773 81.4416C425.196 99.7929 433.259 117.148 439.988 137.862C441.3 141.901 444.155 148.847 446.333 153.299C456.36 173.785 466.55 183.79 500.854 206.83C524.736 222.871 537.123 227.384 554.066 226.22C564.122 225.529 569.592 223.104 576.551 216.251C590.463 202.553 594.489 190.469 599.523 147.309C603.216 115.649 599.84 95.9947 586.689 72.598C573.805 49.6775 566.747 33.4325 561.27 14.0868C559.472 7.74069 557.521 1.95891 556.934 1.23724C555.495 -0.529183 550.034 -0.380235 546.182 1.53094ZM597.858 35.2356C595.15 35.9615 593.789 40.3912 593.786 48.489C593.785 52.6449 593.283 60.1302 592.672 65.1242C591.611 73.798 591.675 74.4315 594.11 79.285C595.512 82.0794 597.697 87.2391 598.964 90.7521L601.27 97.137L605.638 94.9573C609.193 93.1835 612.835 92.6517 625.178 92.102C640.816 91.4066 644.831 90.5181 651.648 86.2437L655.622 83.7524L654.024 86.8489C651.725 91.3059 645.52 96.0628 640.283 97.3856C637.796 98.0128 630.094 98.5268 623.166 98.5268C614.005 98.5268 609.419 98.9894 606.341 100.224C602.266 101.858 602.134 102.061 602.74 105.731C603.841 112.398 603.868 112.424 607.634 110.377C610.505 108.816 613.287 108.561 624.991 108.788C639.888 109.075 645.249 108.195 649.629 104.741C652.942 102.129 653.171 103.508 650.429 109.541C644.5 122.578 636.453 126.19 621.123 122.692C616.16 121.56 610.451 120.498 608.437 120.332L604.775 120.03L604.105 133.142C602.79 158.857 598.528 184.301 593.185 198.321L591.332 203.186L594.71 212.482C599.638 226.046 604.709 234.405 613.064 242.739C626.285 255.925 636.803 259.208 653.321 255.305C668.424 251.736 677.977 244.523 701.899 218.631C728.95 189.351 736.129 174.891 739.774 142.345C742.204 120.65 745.917 103.203 751.72 86.2101C754.526 77.9937 756.599 70.4183 756.327 69.3746C755.144 64.84 752.83 64.4928 718.823 63.7543C700.983 63.3673 683.1 62.5218 679.081 61.8767C665.63 59.718 643.176 51.9369 621.733 42.0045C612.766 37.8506 602.913 34.4174 600.661 34.6629C600.047 34.73 598.785 34.9881 597.858 35.2356ZM539.904 46.5055C530.255 48.896 524.312 53.3666 520.298 61.2547C517.998 65.7735 517.43 76.8462 519.249 81.6713C520.119 83.9811 520.272 83.7713 520.862 79.4581C523.361 61.1802 535.215 49.4121 553.121 47.4359C558.72 46.8181 559.283 46.5873 556.645 45.9894C551.798 44.8922 545.65 45.0821 539.904 46.5055ZM545.268 68.5438C539.339 70.7434 533.987 75.513 531.067 81.2035C528.933 85.3584 528.506 87.6671 528.551 94.8031C528.632 107.533 529.618 108.365 534.962 100.215C543.592 87.0566 558.183 76.799 569.871 75.6724C572.668 75.4039 574.955 74.806 574.955 74.3445C574.955 73.884 572.257 72.1826 568.959 70.5651C561.813 67.0596 551.617 66.19 545.268 68.5438ZM462.477 81.0546C460.175 81.8161 456.879 83.1881 455.153 84.1017C451.095 86.251 443.359 93.987 441.315 97.9405C439.935 100.61 440.525 100.307 445.703 95.681C453.395 88.8073 463.15 85.3301 471.509 86.4829C477.972 87.3745 485.164 90.2811 489.942 93.9346C494.615 97.5094 494.205 95.6087 489.03 89.7146C481.661 81.321 471.589 78.0368 462.477 81.0546ZM683.875 93.6692C685.75 104.015 690.329 108.222 707.31 115.203C719.162 120.075 723.72 123.321 727.826 129.814C730.261 133.661 730.855 134.136 730.855 132.23C730.855 130.927 729.842 127.497 728.602 124.608C725.674 117.787 720.228 113.652 706.541 107.861C698.126 104.302 694.703 102.196 690.584 98.0433C687.7 95.1366 684.803 91.8136 684.145 90.6597C683.209 89.015 683.15 89.6653 683.875 93.6692ZM467.641 103.656C458.442 107.845 452.544 115.613 450.587 126.116C449.575 131.543 450.159 132.161 453.159 128.837C461.251 119.873 482.411 115.075 499.359 118.361C501.806 118.835 503.806 118.867 503.806 118.43C503.806 116.301 493.714 106.768 488.929 104.378C482.305 101.068 473.946 100.785 467.641 103.656ZM411.718 108.139C398.278 115.364 393.581 118.701 385.458 126.791C374.116 138.089 369.328 150.156 370.075 165.556C370.601 176.37 373.654 183.963 380.449 191.354C389.133 200.798 400.589 205.354 417.486 206.083L427.949 206.535L421.233 204.974C406.632 201.58 396.731 194.63 391.373 184.013C382.842 167.109 393.062 151.279 421.366 137.555C432.466 132.173 433.656 131.33 433.165 129.208C432.498 126.333 423.337 104.593 422.351 103.549C421.963 103.139 417.179 105.204 411.718 108.139ZM750.224 105.083C748.551 110.003 744.457 130.875 744.457 134.489C744.457 134.72 747.636 136.163 751.52 137.697C760.646 141.299 768.171 147.076 772.151 153.538C775.045 158.235 775.321 159.475 775.298 167.68C775.276 175.484 774.882 177.425 772.314 182.355C768.74 189.222 760.502 198.169 753.665 202.61C750.903 204.404 748.643 206.027 748.643 206.216C748.643 206.958 759.369 202.418 764.071 199.687C766.807 198.097 772.348 193.449 776.385 189.357C795.22 170.263 799.626 141.606 786.316 124.759C781.786 119.024 771.178 111.6 761.398 107.319C752.575 103.457 750.891 103.12 750.224 105.083ZM577.907 108.754C574.405 112.427 571.816 116.344 571.816 117.972C571.816 118.358 573.481 117.21 575.515 115.419C579.444 111.961 584.046 111.139 585.034 113.721C585.362 114.577 585.956 118.707 586.355 122.899L587.08 130.52L588.342 124.961C592.188 108.017 586.715 99.517 577.907 108.754ZM678.772 116.135C679.179 123.623 679.668 125.429 682.293 129.154C686.313 134.859 691.059 137.158 702.69 139.036C711.706 140.491 716.614 142.337 722.223 146.385C724.395 147.952 724.578 147.951 724.578 146.37C724.578 142.934 720.097 135.235 715.773 131.238C712.81 128.5 708.935 126.347 704.094 124.749C692.242 120.838 685.145 116.787 681.551 111.882L678.299 107.443L678.772 116.135ZM570.572 130.395C556.896 143.297 537.925 154.205 519.501 159.761C509.513 162.774 494.088 165.659 487.975 165.659C485.748 165.659 483.926 166.098 483.926 166.635C483.926 168.307 499.432 181.7 506.761 186.357C518.079 193.551 527.69 196.609 538.858 196.572C546.247 196.548 549.349 196.05 553.263 194.263C564.021 189.35 574.277 174.336 577.593 158.647C579.166 151.209 579.767 123.666 578.356 123.747C577.924 123.772 574.422 126.763 570.572 130.395ZM533.626 135.817C531.9 137.246 527.325 139.369 523.46 140.533C519.117 141.842 515.821 143.528 514.828 144.948C512.462 148.333 512.803 150.346 515.316 147.827C516.982 146.156 518.803 145.729 524.268 145.729H531.129L536.145 140.485C539.745 136.72 541.96 135.24 543.994 135.24C545.617 135.24 546.552 134.792 546.182 134.191C544.874 132.07 536.905 133.102 533.626 135.817ZM469.307 156.337C464.196 158.383 463.905 161.084 468.261 166.057C471.241 169.459 480.542 176.149 482.292 176.149C482.73 176.149 480.666 173.49 477.704 170.24C474.741 166.99 472.461 163.58 472.638 162.661C473.084 160.338 477.389 158.371 482.357 158.222L486.542 158.096L482.357 156.714C477.35 155.06 472.827 154.93 469.307 156.337ZM619.914 158.788C616.767 160.776 612.863 164.098 611.239 166.169C607.887 170.442 603.64 179.334 602.716 184.016C602.282 186.211 602.872 185.509 604.667 181.692C609.404 171.621 618.781 160.259 625.391 156.582C626.712 155.846 627.308 155.228 626.715 155.207C626.122 155.187 623.061 156.798 619.914 158.788ZM637.734 159.602C635.198 160.719 635.247 160.774 639.377 161.416C641.718 161.78 644.754 163.124 646.121 164.401C649.863 167.896 654.704 168.867 661.378 167.463C665.821 166.53 667.579 166.547 669.166 167.54C671.246 168.843 671.813 168.178 670.415 166.079C668.986 163.933 665.098 162.512 660.56 162.478C658.076 162.459 653.455 161.531 650.29 160.415C643.76 158.112 641.456 157.962 637.734 159.602ZM682.482 168.023C687.99 173.9 692.043 187.223 692.257 200.155L692.371 207.093L693.362 202.372C694.81 195.472 693.641 185.197 690.667 178.684C687.74 172.275 683.019 165.659 681.372 165.659C680.764 165.659 681.265 166.723 682.482 168.023ZM634.072 179.719C622.002 183.563 609.006 193.206 604.979 201.307C603.498 204.288 602.544 207.403 602.861 208.23C603.804 210.694 608.12 211.119 616.628 209.588C637.675 205.8 653.548 209.242 672.238 221.646C678.319 225.682 683.128 226.545 684.183 223.79C688.599 212.251 671.755 186.328 656.001 180.419C649.434 177.955 640.508 177.671 634.072 179.719ZM574.058 185.851C570.477 191.624 563.223 197.93 556.645 200.989C551.13 203.553 549.111 203.91 540.036 203.927L529.704 203.946L535.327 205.717C541.816 207.762 549.713 208.079 555.311 206.52C563.089 204.355 572.729 194.551 575.82 185.663C577.259 181.522 576.706 181.581 574.058 185.851ZM425.333 198.059C420.001 198.918 419.471 198.671 433.703 201.968C446.799 205.003 456.711 210.768 461.621 218.207C466.743 225.966 464.547 237.613 456.56 245.038C452.571 248.748 444.058 252.484 437.889 253.23C431.17 254.044 419.502 251.902 412.697 248.607C410.223 247.409 407.826 246.428 407.372 246.428C406.917 246.428 409.575 251.203 413.277 257.039L420.01 267.651L416.312 273.448C412.032 280.154 412.158 280.354 421.703 282.021C449.307 286.84 474.325 276.071 484.231 255.107C487.313 248.582 487.588 247.142 487.588 237.512C487.588 228.066 487.287 226.408 484.56 220.84C479.178 209.851 470.64 203.366 456.833 199.778C449.42 197.853 432.385 196.923 425.333 198.059ZM757.536 207.554C740.951 213.351 723.6 222.868 714.247 231.298C706.197 238.555 703.252 245.535 702.781 258.477C702.345 270.476 704.048 278.785 708.934 288.487C713.685 297.923 713.607 297.975 717.327 282.861C718.004 280.111 718.852 277.68 719.213 277.459C719.574 277.238 723.165 277.415 727.193 277.852C731.222 278.289 734.643 278.549 734.797 278.428C734.951 278.307 733.54 274.953 731.661 270.972C728.513 264.302 728.245 262.912 728.243 253.227C728.24 243.491 728.488 242.221 731.615 235.92C736.841 225.39 746.197 216.506 760.152 208.82C769.31 203.776 768.906 203.58 757.536 207.554ZM625.178 217.054C627.768 217.5 633.884 218.433 638.77 219.127C643.656 219.821 651.17 221.509 655.467 222.877C659.763 224.245 663.411 225.232 663.572 225.069C664.245 224.396 651.396 219.035 645.623 217.58C642.102 216.692 635.268 216.06 629.928 216.126C621.883 216.226 621.174 216.364 625.178 217.054Z" fill="#531B24"/>
<path fill-rule="evenodd" clip-rule="evenodd" d="M176.182 1.53094C174.455 2.38688 168.334 6.68755 162.58 11.0868C150.791 20.0994 132.481 32.3238 122.297 37.9797C109.506 45.0831 88.2143 51.7523 61.0877 57.1523C42.9196 60.768 36.4994 63.8267 36.4994 68.8627C36.4994 69.3536 39.7723 75.0137 43.7734 81.4416C55.1959 99.7929 63.2588 117.148 69.9876 137.862C71.2997 141.901 74.1551 148.847 76.3335 153.299C86.3603 173.785 96.5503 183.79 130.854 206.83C154.736 222.871 167.123 227.384 184.066 226.22C194.122 225.529 199.592 223.104 206.551 216.251C220.463 202.553 224.489 190.469 229.523 147.309C233.216 115.649 229.84 95.9947 216.689 72.598C203.805 49.6775 196.747 33.4325 191.27 14.0868C189.472 7.74069 187.521 1.95891 186.934 1.23724C185.495 -0.529183 180.034 -0.380235 176.182 1.53094ZM227.858 35.2356C225.15 35.9615 223.789 40.3912 223.786 48.489C223.785 52.6449 223.283 60.1302 222.672 65.1242C221.611 73.798 221.675 74.4315 224.11 79.285C225.512 82.0794 227.697 87.2391 228.964 90.7521L231.27 97.137L235.638 94.9573C239.193 93.1835 242.835 92.6517 255.178 92.102C270.816 91.4066 274.831 90.5181 281.648 86.2437L285.622 83.7524L284.024 86.8489C281.725 91.3059 275.52 96.0628 270.283 97.3856C267.796 98.0128 260.094 98.5268 253.166 98.5268C244.005 98.5268 239.419 98.9894 236.341 100.224C232.266 101.858 232.134 102.061 232.74 105.731C233.841 112.398 233.868 112.424 237.634 110.377C240.505 108.816 243.287 108.561 254.991 108.788C269.888 109.075 275.249 108.195 279.629 104.741C282.942 102.129 283.171 103.508 280.429 109.541C274.5 122.578 266.453 126.19 251.123 122.692C246.16 121.56 240.451 120.498 238.437 120.332L234.775 120.03L234.105 133.142C232.79 158.857 228.528 184.301 223.185 198.321L221.332 203.186L224.71 212.482C229.638 226.046 234.709 234.405 243.064 242.739C256.285 255.925 266.803 259.208 283.321 255.305C298.424 251.736 307.977 244.523 331.899 218.631C358.95 189.351 366.129 174.891 369.774 142.345C372.204 120.65 375.917 103.203 381.72 86.2101C384.526 77.9937 386.599 70.4183 386.327 69.3746C385.144 64.84 382.83 64.4928 348.823 63.7543C330.983 63.3673 313.1 62.5218 309.081 61.8767C295.63 59.718 273.176 51.9369 251.733 42.0045C242.766 37.8506 232.913 34.4174 230.661 34.6629C230.047 34.73 228.785 34.9881 227.858 35.2356ZM169.904 46.5055C160.255 48.896 154.312 53.3666 150.298 61.2547C147.998 65.7735 147.43 76.8462 149.249 81.6713C150.119 83.9811 150.272 83.7713 150.862 79.4581C153.361 61.1802 165.215 49.4121 183.121 47.4359C188.72 46.8181 189.283 46.5873 186.645 45.9894C181.798 44.8922 175.65 45.0821 169.904 46.5055ZM175.268 68.5438C169.339 70.7434 163.987 75.513 161.067 81.2035C158.933 85.3584 158.506 87.6671 158.551 94.8031C158.632 107.533 159.618 108.365 164.962 100.215C173.592 87.0566 188.183 76.799 199.871 75.6724C202.668 75.4039 204.955 74.806 204.955 74.3445C204.955 73.884 202.257 72.1826 198.959 70.5651C191.813 67.0596 181.617 66.19 175.268 68.5438ZM92.477 81.0546C90.1751 81.8161 86.8792 83.1881 85.1528 84.1017C81.0952 86.251 73.3588 93.987 71.3154 97.9405C69.9353 100.61 70.5254 100.307 75.7026 95.681C83.395 88.8073 93.1498 85.3301 101.509 86.4829C107.972 87.3745 115.164 90.2811 119.942 93.9346C124.615 97.5094 124.205 95.6087 119.03 89.7146C111.661 81.321 101.589 78.0368 92.477 81.0546ZM313.875 93.6692C315.75 104.015 320.329 108.222 337.31 115.203C349.162 120.075 353.72 123.321 357.826 129.814C360.261 133.661 360.855 134.136 360.855 132.23C360.855 130.927 359.842 127.497 358.602 124.608C355.674 117.787 350.228 113.652 336.541 107.861C328.126 104.302 324.703 102.196 320.584 98.0433C317.7 95.1366 314.803 91.8136 314.145 90.6597C313.209 89.015 313.15 89.6653 313.875 93.6692ZM97.6405 103.656C88.4424 107.845 82.5444 115.613 80.5867 126.116C79.575 131.543 80.1588 132.161 83.1586 128.837C91.2507 119.873 112.411 115.075 129.359 118.361C131.806 118.835 133.806 118.867 133.806 118.43C133.806 116.301 123.714 106.768 118.929 104.378C112.305 101.068 103.946 100.785 97.6405 103.656ZM41.7184 108.139C28.2775 115.364 23.5807 118.701 15.4582 126.791C4.11616 138.089 -0.671751 150.156 0.0753142 165.556C0.600562 176.37 3.65369 183.963 10.4495 191.354C19.1328 200.798 30.5888 205.354 47.4857 206.083L57.9488 206.535L51.2325 204.974C36.6323 201.58 26.7311 194.63 21.3729 184.013C12.8424 167.109 23.0617 151.279 51.3665 137.555C62.4657 132.173 63.6564 131.33 63.1646 129.208C62.4981 126.333 53.3366 104.593 52.351 103.549C51.9628 103.139 47.1791 105.204 41.7184 108.139ZM380.224 105.083C378.551 110.003 374.457 130.875 374.457 134.489C374.457 134.72 377.636 136.163 381.52 137.697C390.646 141.299 398.171 147.076 402.151 153.538C405.045 158.235 405.321 159.475 405.298 167.68C405.276 175.484 404.882 177.425 402.314 182.355C398.74 189.222 390.502 198.169 383.665 202.61C380.903 204.404 378.643 206.027 378.643 206.216C378.643 206.958 389.369 202.418 394.071 199.687C396.807 198.097 402.348 193.449 406.385 189.357C425.22 170.263 429.626 141.606 416.316 124.759C411.786 119.024 401.178 111.6 391.398 107.319C382.575 103.457 380.891 103.12 380.224 105.083ZM207.907 108.754C204.405 112.427 201.816 116.344 201.816 117.972C201.816 118.358 203.481 117.21 205.515 115.419C209.444 111.961 214.046 111.139 215.034 113.721C215.362 114.577 215.956 118.707 216.355 122.899L217.08 130.52L218.342 124.961C222.188 108.017 216.715 99.517 207.907 108.754ZM308.772 116.135C309.179 123.623 309.668 125.429 312.293 129.154C316.313 134.859 321.059 137.158 332.69 139.036C341.706 140.491 346.614 142.337 352.223 146.385C354.395 147.952 354.578 147.951 354.578 146.37C354.578 142.934 350.097 135.235 345.773 131.238C342.81 128.5 338.935 126.347 334.094 124.749C322.242 120.838 315.145 116.787 311.551 111.882L308.299 107.443L308.772 116.135ZM200.572 130.395C186.896 143.297 167.925 154.205 149.501 159.761C139.513 162.774 124.088 165.659 117.975 165.659C115.748 165.659 113.926 166.098 113.926 166.635C113.926 168.307 129.432 181.7 136.761 186.357C148.079 193.551 157.69 196.609 168.858 196.572C176.247 196.548 179.349 196.05 183.263 194.263C194.021 189.35 204.277 174.336 207.593 158.647C209.166 151.209 209.767 123.666 208.356 123.747C207.924 123.772 204.422 126.763 200.572 130.395ZM163.626 135.817C161.9 137.246 157.325 139.369 153.46 140.533C149.117 141.842 145.821 143.528 144.828 144.948C142.462 148.333 142.803 150.346 145.316 147.827C146.982 146.156 148.803 145.729 154.268 145.729H161.129L166.145 140.485C169.745 136.72 171.96 135.24 173.994 135.24C175.617 135.24 176.552 134.792 176.182 134.191C174.874 132.07 166.905 133.102 163.626 135.817ZM99.3073 156.337C94.1961 158.383 93.9052 161.084 98.261 166.057C101.241 169.459 110.542 176.149 112.292 176.149C112.73 176.149 110.666 173.49 107.704 170.24C104.741 166.99 102.461 163.58 102.638 162.661C103.084 160.338 107.389 158.371 112.357 158.222L116.542 158.096L112.357 156.714C107.35 155.06 102.827 154.93 99.3073 156.337ZM249.914 158.788C246.767 160.776 242.863 164.098 241.239 166.169C237.887 170.442 233.64 179.334 232.716 184.016C232.282 186.211 232.872 185.509 234.667 181.692C239.404 171.621 248.781 160.259 255.391 156.582C256.712 155.846 257.308 155.228 256.715 155.207C256.122 155.187 253.061 156.798 249.914 158.788ZM267.734 159.602C265.198 160.719 265.247 160.774 269.377 161.416C271.718 161.78 274.754 163.124 276.121 164.401C279.863 167.896 284.704 168.867 291.378 167.463C295.821 166.53 297.579 166.547 299.166 167.54C301.246 168.843 301.813 168.178 300.415 166.079C298.986 163.933 295.098 162.512 290.56 162.478C288.076 162.459 283.455 161.531 280.29 160.415C273.76 158.112 271.456 157.962 267.734 159.602ZM312.482 168.023C317.99 173.9 322.043 187.223 322.257 200.155L322.371 207.093L323.362 202.372C324.81 195.472 323.641 185.197 320.667 178.684C317.74 172.275 313.019 165.659 311.372 165.659C310.764 165.659 311.265 166.723 312.482 168.023ZM264.072 179.719C252.002 183.563 239.006 193.206 234.979 201.307C233.498 204.288 232.544 207.403 232.861 208.23C233.804 210.694 238.12 211.119 246.628 209.588C267.675 205.8 283.548 209.242 302.238 221.646C308.319 225.682 313.128 226.545 314.183 223.79C318.599 212.251 301.755 186.328 286.001 180.419C279.434 177.955 270.508 177.671 264.072 179.719ZM204.058 185.851C200.477 191.624 193.223 197.93 186.645 200.989C181.13 203.553 179.111 203.91 170.036 203.927L159.704 203.946L165.327 205.717C171.816 207.762 179.713 208.079 185.311 206.52C193.089 204.355 202.729 194.551 205.82 185.663C207.259 181.522 206.706 181.581 204.058 185.851ZM55.333 198.059C50.001 198.918 49.4705 198.671 63.7035 201.968C76.7991 205.003 86.7108 210.768 91.6211 218.207C96.7428 225.966 94.5466 237.613 86.5601 245.038C82.5705 248.748 74.0578 252.484 67.8887 253.23C61.1704 254.044 49.5019 251.902 42.6967 248.607C40.2233 247.409 37.8262 246.428 37.3721 246.428C36.9169 246.428 39.5745 251.203 43.2774 257.039L50.0104 267.651L46.3117 273.448C42.0323 280.154 42.1579 280.354 51.7034 282.021C79.3071 286.84 104.325 276.071 114.231 255.107C117.313 248.582 117.588 247.142 117.588 237.512C117.588 228.066 117.287 226.408 114.56 220.84C109.178 209.851 100.64 203.366 86.8332 199.778C79.4201 197.853 62.3851 196.923 55.333 198.059ZM387.536 207.554C370.951 213.351 353.6 222.868 344.247 231.298C336.197 238.555 333.252 245.535 332.781 258.477C332.345 270.476 334.048 278.785 338.934 288.487C343.685 297.923 343.607 297.975 347.327 282.861C348.004 280.111 348.852 277.68 349.213 277.459C349.574 277.238 353.165 277.415 357.193 277.852C361.222 278.289 364.643 278.549 364.797 278.428C364.951 278.307 363.54 274.953 361.661 270.972C358.513 264.302 358.245 262.912 358.243 253.227C358.24 243.491 358.488 242.221 361.615 235.92C366.841 225.39 376.197 216.506 390.152 208.82C399.31 203.776 398.906 203.58 387.536 207.554ZM255.178 217.054C257.768 217.5 263.884 218.433 268.77 219.127C273.656 219.821 281.17 221.509 285.467 222.877C289.763 224.245 293.411 225.232 293.572 225.069C294.245 224.396 281.396 219.035 275.623 217.58C272.102 216.692 265.268 216.06 259.928 216.126C251.883 216.226 251.174 216.364 255.178 217.054Z" fill="#531B24"/>
<path fill-rule="evenodd" clip-rule="evenodd" d="M913.182 1.53094C911.455 2.38688 905.334 6.68755 899.58 11.0868C887.791 20.0994 869.481 32.3238 859.297 37.9797C846.506 45.0831 825.214 51.7523 798.088 57.1523C779.92 60.768 773.499 63.8267 773.499 68.8627C773.499 69.3536 776.772 75.0137 780.773 81.4416C792.196 99.7929 800.259 117.148 806.988 137.862C808.3 141.901 811.155 148.847 813.333 153.299C823.36 173.785 833.55 183.79 867.854 206.83C891.736 222.871 904.123 227.384 921.066 226.22C931.122 225.529 936.592 223.104 943.551 216.251C957.463 202.553 961.489 190.469 966.523 147.309C970.216 115.649 966.84 95.9947 953.689 72.598C940.805 49.6775 933.747 33.4325 928.27 14.0868C926.472 7.74069 924.521 1.95891 923.934 1.23724C922.495 -0.529183 917.034 -0.380235 913.182 1.53094ZM964.858 35.2356C962.15 35.9615 960.789 40.3912 960.786 48.489C960.785 52.6449 960.283 60.1302 959.672 65.1242C958.611 73.798 958.675 74.4315 961.11 79.285C962.512 82.0794 964.697 87.2391 965.964 90.7521L968.27 97.137L972.638 94.9573C976.193 93.1835 979.835 92.6517 992.178 92.102C1007.82 91.4066 1011.83 90.5181 1018.65 86.2437L1022.62 83.7524L1021.02 86.8489C1018.73 91.3059 1012.52 96.0628 1007.28 97.3856C1004.8 98.0128 997.094 98.5268 990.166 98.5268C981.005 98.5268 976.419 98.9894 973.341 100.224C969.266 101.858 969.134 102.061 969.74 105.731C970.841 112.398 970.868 112.424 974.634 110.377C977.505 108.816 980.287 108.561 991.991 108.788C1006.89 109.075 1012.25 108.195 1016.63 104.741C1019.94 102.129 1020.17 103.508 1017.43 109.541C1011.5 122.578 1003.45 126.19 988.123 122.692C983.16 121.56 977.451 120.498 975.437 120.332L971.775 120.03L971.105 133.142C969.79 158.857 965.528 184.301 960.185 198.321L958.332 203.186L961.71 212.482C966.638 226.046 971.709 234.405 980.064 242.739C993.285 255.925 1003.8 259.208 1020.32 255.305C1035.42 251.736 1044.98 244.523 1068.9 218.631C1095.95 189.351 1103.13 174.891 1106.77 142.345C1109.2 120.65 1112.92 103.203 1118.72 86.2101C1121.53 77.9937 1123.6 70.4183 1123.33 69.3746C1122.14 64.84 1119.83 64.4928 1085.82 63.7543C1067.98 63.3673 1050.1 62.5218 1046.08 61.8767C1032.63 59.718 1010.18 51.9369 988.733 42.0045C979.766 37.8506 969.913 34.4174 967.661 34.6629C967.047 34.73 965.785 34.9881 964.858 35.2356ZM906.904 46.5055C897.255 48.896 891.312 53.3666 887.298 61.2547C884.998 65.7735 884.43 76.8462 886.249 81.6713C887.119 83.9811 887.272 83.7713 887.862 79.4581C890.361 61.1802 902.215 49.4121 920.121 47.4359C925.72 46.8181 926.283 46.5873 923.645 45.9894C918.798 44.8922 912.65 45.0821 906.904 46.5055ZM912.268 68.5438C906.339 70.7434 900.987 75.513 898.067 81.2035C895.933 85.3584 895.506 87.6671 895.551 94.8031C895.632 107.533 896.618 108.365 901.962 100.215C910.592 87.0566 925.183 76.799 936.871 75.6724C939.668 75.4039 941.955 74.806 941.955 74.3445C941.955 73.884 939.257 72.1826 935.959 70.5651C928.813 67.0596 918.617 66.19 912.268 68.5438ZM829.477 81.0546C827.175 81.8161 823.879 83.1881 822.153 84.1017C818.095 86.251 810.359 93.987 808.315 97.9405C806.935 100.61 807.525 100.307 812.703 95.681C820.395 88.8073 830.15 85.3301 838.509 86.4829C844.972 87.3745 852.164 90.2811 856.942 93.9346C861.615 97.5094 861.205 95.6087 856.03 89.7146C848.661 81.321 838.589 78.0368 829.477 81.0546ZM1050.88 93.6692C1052.75 104.015 1057.33 108.222 1074.31 115.203C1086.16 120.075 1090.72 123.321 1094.83 129.814C1097.26 133.661 1097.86 134.136 1097.86 132.23C1097.86 130.927 1096.84 127.497 1095.6 124.608C1092.67 117.787 1087.23 113.652 1073.54 107.861C1065.13 104.302 1061.7 102.196 1057.58 98.0433C1054.7 95.1366 1051.8 91.8136 1051.15 90.6597C1050.21 89.015 1050.15 89.6653 1050.88 93.6692ZM834.641 103.656C825.442 107.845 819.544 115.613 817.587 126.116C816.575 131.543 817.159 132.161 820.159 128.837C828.251 119.873 849.411 115.075 866.359 118.361C868.806 118.835 870.806 118.867 870.806 118.43C870.806 116.301 860.714 106.768 855.929 104.378C849.305 101.068 840.946 100.785 834.641 103.656ZM778.718 108.139C765.278 115.364 760.581 118.701 752.458 126.791C741.116 138.089 736.328 150.156 737.075 165.556C737.601 176.37 740.654 183.963 747.449 191.354C756.133 200.798 767.589 205.354 784.486 206.083L794.949 206.535L788.233 204.974C773.632 201.58 763.731 194.63 758.373 184.013C749.842 167.109 760.062 151.279 788.366 137.555C799.466 132.173 800.656 131.33 800.165 129.208C799.498 126.333 790.337 104.593 789.351 103.549C788.963 103.139 784.179 105.204 778.718 108.139ZM1117.22 105.083C1115.55 110.003 1111.46 130.875 1111.46 134.489C1111.46 134.72 1114.64 136.163 1118.52 137.697C1127.65 141.299 1135.17 147.076 1139.15 153.538C1142.05 158.235 1142.32 159.475 1142.3 167.68C1142.28 175.484 1141.88 177.425 1139.31 182.355C1135.74 189.222 1127.5 198.169 1120.66 202.61C1117.9 204.404 1115.64 206.027 1115.64 206.216C1115.64 206.958 1126.37 202.418 1131.07 199.687C1133.81 198.097 1139.35 193.449 1143.38 189.357C1162.22 170.263 1166.63 141.606 1153.32 124.759C1148.79 119.024 1138.18 111.6 1128.4 107.319C1119.57 103.457 1117.89 103.12 1117.22 105.083ZM944.907 108.754C941.405 112.427 938.816 116.344 938.816 117.972C938.816 118.358 940.481 117.21 942.515 115.419C946.444 111.961 951.046 111.139 952.034 113.721C952.362 114.577 952.956 118.707 953.355 122.899L954.08 130.52L955.342 124.961C959.188 108.017 953.715 99.517 944.907 108.754ZM1045.77 116.135C1046.18 123.623 1046.67 125.429 1049.29 129.154C1053.31 134.859 1058.06 137.158 1069.69 139.036C1078.71 140.491 1083.61 142.337 1089.22 146.385C1091.4 147.952 1091.58 147.951 1091.58 146.37C1091.58 142.934 1087.1 135.235 1082.77 131.238C1079.81 128.5 1075.94 126.347 1071.09 124.749C1059.24 120.838 1052.15 116.787 1048.55 111.882L1045.3 107.443L1045.77 116.135ZM937.572 130.395C923.896 143.297 904.925 154.205 886.501 159.761C876.513 162.774 861.088 165.659 854.975 165.659C852.748 165.659 850.926 166.098 850.926 166.635C850.926 168.307 866.432 181.7 873.761 186.357C885.079 193.551 894.69 196.609 905.858 196.572C913.247 196.548 916.349 196.05 920.263 194.263C931.021 189.35 941.277 174.336 944.593 158.647C946.166 151.209 946.767 123.666 945.356 123.747C944.924 123.772 941.422 126.763 937.572 130.395ZM900.626 135.817C898.9 137.246 894.325 139.369 890.46 140.533C886.117 141.842 882.821 143.528 881.828 144.948C879.462 148.333 879.803 150.346 882.316 147.827C883.982 146.156 885.803 145.729 891.268 145.729H898.129L903.145 140.485C906.745 136.72 908.96 135.24 910.994 135.24C912.617 135.24 913.552 134.792 913.182 134.191C911.874 132.07 903.905 133.102 900.626 135.817ZM836.307 156.337C831.196 158.383 830.905 161.084 835.261 166.057C838.241 169.459 847.542 176.149 849.292 176.149C849.73 176.149 847.666 173.49 844.704 170.24C841.741 166.99 839.461 163.58 839.638 162.661C840.084 160.338 844.389 158.371 849.357 158.222L853.542 158.096L849.357 156.714C844.35 155.06 839.827 154.93 836.307 156.337ZM986.914 158.788C983.767 160.776 979.863 164.098 978.239 166.169C974.887 170.442 970.64 179.334 969.716 184.016C969.282 186.211 969.872 185.509 971.667 181.692C976.404 171.621 985.781 160.259 992.391 156.582C993.712 155.846 994.308 155.228 993.715 155.207C993.122 155.187 990.061 156.798 986.914 158.788ZM1004.73 159.602C1002.2 160.719 1002.25 160.774 1006.38 161.416C1008.72 161.78 1011.75 163.124 1013.12 164.401C1016.86 167.896 1021.7 168.867 1028.38 167.463C1032.82 166.53 1034.58 166.547 1036.17 167.54C1038.25 168.843 1038.81 168.178 1037.42 166.079C1035.99 163.933 1032.1 162.512 1027.56 162.478C1025.08 162.459 1020.45 161.531 1017.29 160.415C1010.76 158.112 1008.46 157.962 1004.73 159.602ZM1049.48 168.023C1054.99 173.9 1059.04 187.223 1059.26 200.155L1059.37 207.093L1060.36 202.372C1061.81 195.472 1060.64 185.197 1057.67 178.684C1054.74 172.275 1050.02 165.659 1048.37 165.659C1047.76 165.659 1048.26 166.723 1049.48 168.023ZM1001.07 179.719C989.002 183.563 976.006 193.206 971.979 201.307C970.498 204.288 969.544 207.403 969.861 208.23C970.804 210.694 975.12 211.119 983.628 209.588C1004.68 205.8 1020.55 209.242 1039.24 221.646C1045.32 225.682 1050.13 226.545 1051.18 223.79C1055.6 212.251 1038.75 186.328 1023 180.419C1016.43 177.955 1007.51 177.671 1001.07 179.719ZM941.058 185.851C937.477 191.624 930.223 197.93 923.645 200.989C918.13 203.553 916.111 203.91 907.036 203.927L896.704 203.946L902.327 205.717C908.816 207.762 916.713 208.079 922.311 206.52C930.089 204.355 939.729 194.551 942.82 185.663C944.259 181.522 943.706 181.581 941.058 185.851ZM792.333 198.059C787.001 198.918 786.471 198.671 800.703 201.968C813.799 205.003 823.711 210.768 828.621 218.207C833.743 225.966 831.547 237.613 823.56 245.038C819.571 248.748 811.058 252.484 804.889 253.23C798.17 254.044 786.502 251.902 779.697 248.607C777.223 247.409 774.826 246.428 774.372 246.428C773.917 246.428 776.575 251.203 780.277 257.039L787.01 267.651L783.312 273.448C779.032 280.154 779.158 280.354 788.703 282.021C816.307 286.84 841.325 276.071 851.231 255.107C854.313 248.582 854.588 247.142 854.588 237.512C854.588 228.066 854.287 226.408 851.56 220.84C846.178 209.851 837.64 203.366 823.833 199.778C816.42 197.853 799.385 196.923 792.333 198.059ZM1124.54 207.554C1107.95 213.351 1090.6 222.868 1081.25 231.298C1073.2 238.555 1070.25 245.535 1069.78 258.477C1069.34 270.476 1071.05 278.785 1075.93 288.487C1080.69 297.923 1080.61 297.975 1084.33 282.861C1085 280.111 1085.85 277.68 1086.21 277.459C1086.57 277.238 1090.17 277.415 1094.19 277.852C1098.22 278.289 1101.64 278.549 1101.8 278.428C1101.95 278.307 1100.54 274.953 1098.66 270.972C1095.51 264.302 1095.24 262.912 1095.24 253.227C1095.24 243.491 1095.49 242.221 1098.62 235.92C1103.84 225.39 1113.2 216.506 1127.15 208.82C1136.31 203.776 1135.91 203.58 1124.54 207.554ZM992.178 217.054C994.768 217.5 1000.88 218.433 1005.77 219.127C1010.66 219.821 1018.17 221.509 1022.47 222.877C1026.76 224.245 1030.41 225.232 1030.57 225.069C1031.25 224.396 1018.4 219.035 1012.62 217.58C1009.1 216.692 1002.27 216.06 996.928 216.126C988.883 216.226 988.174 216.364 992.178 217.054Z" fill="#531B24"/>
<path fill-rule="evenodd" clip-rule="evenodd" d="M1281.18 1.53094C1279.46 2.38688 1273.33 6.68755 1267.58 11.0868C1255.79 20.0994 1237.48 32.3238 1227.3 37.9797C1214.51 45.0831 1193.21 51.7523 1166.09 57.1523C1147.92 60.768 1141.5 63.8267 1141.5 68.8627C1141.5 69.3536 1144.77 75.0137 1148.77 81.4416C1160.2 99.7929 1168.26 117.148 1174.99 137.862C1176.3 141.901 1179.16 148.847 1181.33 153.299C1191.36 173.785 1201.55 183.79 1235.85 206.83C1259.74 222.871 1272.12 227.384 1289.07 226.22C1299.12 225.529 1304.59 223.104 1311.55 216.251C1325.46 202.553 1329.49 190.469 1334.52 147.309C1338.22 115.649 1334.84 95.9947 1321.69 72.598C1308.81 49.6775 1301.75 33.4325 1296.27 14.0868C1294.47 7.74069 1292.52 1.95891 1291.93 1.23724C1290.49 -0.529183 1285.03 -0.380235 1281.18 1.53094ZM1332.86 35.2356C1330.15 35.9615 1328.79 40.3912 1328.79 48.489C1328.78 52.6449 1328.28 60.1302 1327.67 65.1242C1326.61 73.798 1326.68 74.4315 1329.11 79.285C1330.51 82.0794 1332.7 87.2391 1333.96 90.7521L1336.27 97.137L1340.64 94.9573C1344.19 93.1835 1347.83 92.6517 1360.18 92.102C1375.82 91.4066 1379.83 90.5181 1386.65 86.2437L1390.62 83.7524L1389.02 86.8489C1386.73 91.3059 1380.52 96.0628 1375.28 97.3856C1372.8 98.0128 1365.09 98.5268 1358.17 98.5268C1349 98.5268 1344.42 98.9894 1341.34 100.224C1337.27 101.858 1337.13 102.061 1337.74 105.731C1338.84 112.398 1338.87 112.424 1342.63 110.377C1345.5 108.816 1348.29 108.561 1359.99 108.788C1374.89 109.075 1380.25 108.195 1384.63 104.741C1387.94 102.129 1388.17 103.508 1385.43 109.541C1379.5 122.578 1371.45 126.19 1356.12 122.692C1351.16 121.56 1345.45 120.498 1343.44 120.332L1339.78 120.03L1339.11 133.142C1337.79 158.857 1333.53 184.301 1328.19 198.321L1326.33 203.186L1329.71 212.482C1334.64 226.046 1339.71 234.405 1348.06 242.739C1361.29 255.925 1371.8 259.208 1388.32 255.305C1403.42 251.736 1412.98 244.523 1436.9 218.631C1463.95 189.351 1471.13 174.891 1474.77 142.345C1477.2 120.65 1480.92 103.203 1486.72 86.2101C1489.53 77.9937 1491.6 70.4183 1491.33 69.3746C1490.14 64.84 1487.83 64.4928 1453.82 63.7543C1435.98 63.3673 1418.1 62.5218 1414.08 61.8767C1400.63 59.718 1378.18 51.9369 1356.73 42.0045C1347.77 37.8506 1337.91 34.4174 1335.66 34.6629C1335.05 34.73 1333.78 34.9881 1332.86 35.2356ZM1274.9 46.5055C1265.25 48.896 1259.31 53.3666 1255.3 61.2547C1253 65.7735 1252.43 76.8462 1254.25 81.6713C1255.12 83.9811 1255.27 83.7713 1255.86 79.4581C1258.36 61.1802 1270.22 49.4121 1288.12 47.4359C1293.72 46.8181 1294.28 46.5873 1291.64 45.9894C1286.8 44.8922 1280.65 45.0821 1274.9 46.5055ZM1280.27 68.5438C1274.34 70.7434 1268.99 75.513 1266.07 81.2035C1263.93 85.3584 1263.51 87.6671 1263.55 94.8031C1263.63 107.533 1264.62 108.365 1269.96 100.215C1278.59 87.0566 1293.18 76.799 1304.87 75.6724C1307.67 75.4039 1309.96 74.806 1309.96 74.3445C1309.96 73.884 1307.26 72.1826 1303.96 70.5651C1296.81 67.0596 1286.62 66.19 1280.27 68.5438ZM1197.48 81.0546C1195.18 81.8161 1191.88 83.1881 1190.15 84.1017C1186.1 86.251 1178.36 93.987 1176.32 97.9405C1174.94 100.61 1175.53 100.307 1180.7 95.681C1188.4 88.8073 1198.15 85.3301 1206.51 86.4829C1212.97 87.3745 1220.16 90.2811 1224.94 93.9346C1229.62 97.5094 1229.21 95.6087 1224.03 89.7146C1216.66 81.321 1206.59 78.0368 1197.48 81.0546ZM1418.88 93.6692C1420.75 104.015 1425.33 108.222 1442.31 115.203C1454.16 120.075 1458.72 123.321 1462.83 129.814C1465.26 133.661 1465.86 134.136 1465.86 132.23C1465.86 130.927 1464.84 127.497 1463.6 124.608C1460.67 117.787 1455.23 113.652 1441.54 107.861C1433.13 104.302 1429.7 102.196 1425.58 98.0433C1422.7 95.1366 1419.8 91.8136 1419.15 90.6597C1418.21 89.015 1418.15 89.6653 1418.88 93.6692ZM1202.64 103.656C1193.44 107.845 1187.54 115.613 1185.59 126.116C1184.57 131.543 1185.16 132.161 1188.16 128.837C1196.25 119.873 1217.41 115.075 1234.36 118.361C1236.81 118.835 1238.81 118.867 1238.81 118.43C1238.81 116.301 1228.71 106.768 1223.93 104.378C1217.3 101.068 1208.95 100.785 1202.64 103.656ZM1146.72 108.139C1133.28 115.364 1128.58 118.701 1120.46 126.791C1109.12 138.089 1104.33 150.156 1105.08 165.556C1105.6 176.37 1108.65 183.963 1115.45 191.354C1124.13 200.798 1135.59 205.354 1152.49 206.083L1162.95 206.535L1156.23 204.974C1141.63 201.58 1131.73 194.63 1126.37 184.013C1117.84 167.109 1128.06 151.279 1156.37 137.555C1167.47 132.173 1168.66 131.33 1168.16 129.208C1167.5 126.333 1158.34 104.593 1157.35 103.549C1156.96 103.139 1152.18 105.204 1146.72 108.139ZM1485.22 105.083C1483.55 110.003 1479.46 130.875 1479.46 134.489C1479.46 134.72 1482.64 136.163 1486.52 137.697C1495.65 141.299 1503.17 147.076 1507.15 153.538C1510.05 158.235 1510.32 159.475 1510.3 167.68C1510.28 175.484 1509.88 177.425 1507.31 182.355C1503.74 189.222 1495.5 198.169 1488.66 202.61C1485.9 204.404 1483.64 206.027 1483.64 206.216C1483.64 206.958 1494.37 202.418 1499.07 199.687C1501.81 198.097 1507.35 193.449 1511.38 189.357C1530.22 170.263 1534.63 141.606 1521.32 124.759C1516.79 119.024 1506.18 111.6 1496.4 107.319C1487.57 103.457 1485.89 103.12 1485.22 105.083ZM1312.91 108.754C1309.4 112.427 1306.82 116.344 1306.82 117.972C1306.82 118.358 1308.48 117.21 1310.52 115.419C1314.44 111.961 1319.05 111.139 1320.03 113.721C1320.36 114.577 1320.96 118.707 1321.35 122.899L1322.08 130.52L1323.34 124.961C1327.19 108.017 1321.71 99.517 1312.91 108.754ZM1413.77 116.135C1414.18 123.623 1414.67 125.429 1417.29 129.154C1421.31 134.859 1426.06 137.158 1437.69 139.036C1446.71 140.491 1451.61 142.337 1457.22 146.385C1459.4 147.952 1459.58 147.951 1459.58 146.37C1459.58 142.934 1455.1 135.235 1450.77 131.238C1447.81 128.5 1443.94 126.347 1439.09 124.749C1427.24 120.838 1420.15 116.787 1416.55 111.882L1413.3 107.443L1413.77 116.135ZM1305.57 130.395C1291.9 143.297 1272.93 154.205 1254.5 159.761C1244.51 162.774 1229.09 165.659 1222.97 165.659C1220.75 165.659 1218.93 166.098 1218.93 166.635C1218.93 168.307 1234.43 181.7 1241.76 186.357C1253.08 193.551 1262.69 196.609 1273.86 196.572C1281.25 196.548 1284.35 196.05 1288.26 194.263C1299.02 189.35 1309.28 174.336 1312.59 158.647C1314.17 151.209 1314.77 123.666 1313.36 123.747C1312.92 123.772 1309.42 126.763 1305.57 130.395ZM1268.63 135.817C1266.9 137.246 1262.33 139.369 1258.46 140.533C1254.12 141.842 1250.82 143.528 1249.83 144.948C1247.46 148.333 1247.8 150.346 1250.32 147.827C1251.98 146.156 1253.8 145.729 1259.27 145.729H1266.13L1271.14 140.485C1274.74 136.72 1276.96 135.24 1278.99 135.24C1280.62 135.24 1281.55 134.792 1281.18 134.191C1279.87 132.07 1271.91 133.102 1268.63 135.817ZM1204.31 156.337C1199.2 158.383 1198.91 161.084 1203.26 166.057C1206.24 169.459 1215.54 176.149 1217.29 176.149C1217.73 176.149 1215.67 173.49 1212.7 170.24C1209.74 166.99 1207.46 163.58 1207.64 162.661C1208.08 160.338 1212.39 158.371 1217.36 158.222L1221.54 158.096L1217.36 156.714C1212.35 155.06 1207.83 154.93 1204.31 156.337ZM1354.91 158.788C1351.77 160.776 1347.86 164.098 1346.24 166.169C1342.89 170.442 1338.64 179.334 1337.72 184.016C1337.28 186.211 1337.87 185.509 1339.67 181.692C1344.4 171.621 1353.78 160.259 1360.39 156.582C1361.71 155.846 1362.31 155.228 1361.72 155.207C1361.12 155.187 1358.06 156.798 1354.91 158.788ZM1372.73 159.602C1370.2 160.719 1370.25 160.774 1374.38 161.416C1376.72 161.78 1379.75 163.124 1381.12 164.401C1384.86 167.896 1389.7 168.867 1396.38 167.463C1400.82 166.53 1402.58 166.547 1404.17 167.54C1406.25 168.843 1406.81 168.178 1405.42 166.079C1403.99 163.933 1400.1 162.512 1395.56 162.478C1393.08 162.459 1388.45 161.531 1385.29 160.415C1378.76 158.112 1376.46 157.962 1372.73 159.602ZM1417.48 168.023C1422.99 173.9 1427.04 187.223 1427.26 200.155L1427.37 207.093L1428.36 202.372C1429.81 195.472 1428.64 185.197 1425.67 178.684C1422.74 172.275 1418.02 165.659 1416.37 165.659C1415.76 165.659 1416.26 166.723 1417.48 168.023ZM1369.07 179.719C1357 183.563 1344.01 193.206 1339.98 201.307C1338.5 204.288 1337.54 207.403 1337.86 208.23C1338.8 210.694 1343.12 211.119 1351.63 209.588C1372.68 205.8 1388.55 209.242 1407.24 221.646C1413.32 225.682 1418.13 226.545 1419.18 223.79C1423.6 212.251 1406.75 186.328 1391 180.419C1384.43 177.955 1375.51 177.671 1369.07 179.719ZM1309.06 185.851C1305.48 191.624 1298.22 197.93 1291.64 200.989C1286.13 203.553 1284.11 203.91 1275.04 203.927L1264.7 203.946L1270.33 205.717C1276.82 207.762 1284.71 208.079 1290.31 206.52C1298.09 204.355 1307.73 194.551 1310.82 185.663C1312.26 181.522 1311.71 181.581 1309.06 185.851ZM1160.33 198.059C1155 198.918 1154.47 198.671 1168.7 201.968C1181.8 205.003 1191.71 210.768 1196.62 218.207C1201.74 225.966 1199.55 237.613 1191.56 245.038C1187.57 248.748 1179.06 252.484 1172.89 253.23C1166.17 254.044 1154.5 251.902 1147.7 248.607C1145.22 247.409 1142.83 246.428 1142.37 246.428C1141.92 246.428 1144.57 251.203 1148.28 257.039L1155.01 267.651L1151.31 273.448C1147.03 280.154 1147.16 280.354 1156.7 282.021C1184.31 286.84 1209.33 276.071 1219.23 255.107C1222.31 248.582 1222.59 247.142 1222.59 237.512C1222.59 228.066 1222.29 226.408 1219.56 220.84C1214.18 209.851 1205.64 203.366 1191.83 199.778C1184.42 197.853 1167.39 196.923 1160.33 198.059ZM1492.54 207.554C1475.95 213.351 1458.6 222.868 1449.25 231.298C1441.2 238.555 1438.25 245.535 1437.78 258.477C1437.34 270.476 1439.05 278.785 1443.93 288.487C1448.69 297.923 1448.61 297.975 1452.33 282.861C1453 280.111 1453.85 277.68 1454.21 277.459C1454.57 277.238 1458.17 277.415 1462.19 277.852C1466.22 278.289 1469.64 278.549 1469.8 278.428C1469.95 278.307 1468.54 274.953 1466.66 270.972C1463.51 264.302 1463.24 262.912 1463.24 253.227C1463.24 243.491 1463.49 242.221 1466.62 235.92C1471.84 225.39 1481.2 216.506 1495.15 208.82C1504.31 203.776 1503.91 203.58 1492.54 207.554ZM1360.18 217.054C1362.77 217.5 1368.88 218.433 1373.77 219.127C1378.66 219.821 1386.17 221.509 1390.47 222.877C1394.76 224.245 1398.41 225.232 1398.57 225.069C1399.25 224.396 1386.4 219.035 1380.62 217.58C1377.1 216.692 1370.27 216.06 1364.93 216.126C1356.88 216.226 1356.17 216.364 1360.18 217.054Z" fill="#531B24"/>
<path fill-rule="evenodd" clip-rule="evenodd" d="M1648.18 1.53094C1646.46 2.38688 1640.33 6.68755 1634.58 11.0868C1622.79 20.0994 1604.48 32.3238 1594.3 37.9797C1581.51 45.0831 1560.21 51.7523 1533.09 57.1523C1514.92 60.768 1508.5 63.8267 1508.5 68.8627C1508.5 69.3536 1511.77 75.0137 1515.77 81.4416C1527.2 99.7929 1535.26 117.148 1541.99 137.862C1543.3 141.901 1546.16 148.847 1548.33 153.299C1558.36 173.785 1568.55 183.79 1602.85 206.83C1626.74 222.871 1639.12 227.384 1656.07 226.22C1666.12 225.529 1671.59 223.104 1678.55 216.251C1692.46 202.553 1696.49 190.469 1701.52 147.309C1705.22 115.649 1701.84 95.9947 1688.69 72.598C1675.81 49.6775 1668.75 33.4325 1663.27 14.0868C1661.47 7.74069 1659.52 1.95891 1658.93 1.23724C1657.49 -0.529183 1652.03 -0.380235 1648.18 1.53094ZM1699.86 35.2356C1697.15 35.9615 1695.79 40.3912 1695.79 48.489C1695.78 52.6449 1695.28 60.1302 1694.67 65.1242C1693.61 73.798 1693.68 74.4315 1696.11 79.285C1697.51 82.0794 1699.7 87.2391 1700.96 90.7521L1703.27 97.137L1707.64 94.9573C1711.19 93.1835 1714.83 92.6517 1727.18 92.102C1742.82 91.4066 1746.83 90.5181 1753.65 86.2437L1757.62 83.7524L1756.02 86.8489C1753.73 91.3059 1747.52 96.0628 1742.28 97.3856C1739.8 98.0128 1732.09 98.5268 1725.17 98.5268C1716 98.5268 1711.42 98.9894 1708.34 100.224C1704.27 101.858 1704.13 102.061 1704.74 105.731C1705.84 112.398 1705.87 112.424 1709.63 110.377C1712.5 108.816 1715.29 108.561 1726.99 108.788C1741.89 109.075 1747.25 108.195 1751.63 104.741C1754.94 102.129 1755.17 103.508 1752.43 109.541C1746.5 122.578 1738.45 126.19 1723.12 122.692C1718.16 121.56 1712.45 120.498 1710.44 120.332L1706.78 120.03L1706.11 133.142C1704.79 158.857 1700.53 184.301 1695.19 198.321L1693.33 203.186L1696.71 212.482C1701.64 226.046 1706.71 234.405 1715.06 242.739C1728.29 255.925 1738.8 259.208 1755.32 255.305C1770.42 251.736 1779.98 244.523 1803.9 218.631C1830.95 189.351 1838.13 174.891 1841.77 142.345C1844.2 120.65 1847.92 103.203 1853.72 86.2101C1856.53 77.9937 1858.6 70.4183 1858.33 69.3746C1857.14 64.84 1854.83 64.4928 1820.82 63.7543C1802.98 63.3673 1785.1 62.5218 1781.08 61.8767C1767.63 59.718 1745.18 51.9369 1723.73 42.0045C1714.77 37.8506 1704.91 34.4174 1702.66 34.6629C1702.05 34.73 1700.78 34.9881 1699.86 35.2356ZM1641.9 46.5055C1632.25 48.896 1626.31 53.3666 1622.3 61.2547C1620 65.7735 1619.43 76.8462 1621.25 81.6713C1622.12 83.9811 1622.27 83.7713 1622.86 79.4581C1625.36 61.1802 1637.22 49.4121 1655.12 47.4359C1660.72 46.8181 1661.28 46.5873 1658.64 45.9894C1653.8 44.8922 1647.65 45.0821 1641.9 46.5055ZM1647.27 68.5438C1641.34 70.7434 1635.99 75.513 1633.07 81.2035C1630.93 85.3584 1630.51 87.6671 1630.55 94.8031C1630.63 107.533 1631.62 108.365 1636.96 100.215C1645.59 87.0566 1660.18 76.799 1671.87 75.6724C1674.67 75.4039 1676.96 74.806 1676.96 74.3445C1676.96 73.884 1674.26 72.1826 1670.96 70.5651C1663.81 67.0596 1653.62 66.19 1647.27 68.5438ZM1564.48 81.0546C1562.18 81.8161 1558.88 83.1881 1557.15 84.1017C1553.1 86.251 1545.36 93.987 1543.32 97.9405C1541.94 100.61 1542.53 100.307 1547.7 95.681C1555.4 88.8073 1565.15 85.3301 1573.51 86.4829C1579.97 87.3745 1587.16 90.2811 1591.94 93.9346C1596.62 97.5094 1596.21 95.6087 1591.03 89.7146C1583.66 81.321 1573.59 78.0368 1564.48 81.0546ZM1785.88 93.6692C1787.75 104.015 1792.33 108.222 1809.31 115.203C1821.16 120.075 1825.72 123.321 1829.83 129.814C1832.26 133.661 1832.86 134.136 1832.86 132.23C1832.86 130.927 1831.84 127.497 1830.6 124.608C1827.67 117.787 1822.23 113.652 1808.54 107.861C1800.13 104.302 1796.7 102.196 1792.58 98.0433C1789.7 95.1366 1786.8 91.8136 1786.15 90.6597C1785.21 89.015 1785.15 89.6653 1785.88 93.6692ZM1569.64 103.656C1560.44 107.845 1554.54 115.613 1552.59 126.116C1551.57 131.543 1552.16 132.161 1555.16 128.837C1563.25 119.873 1584.41 115.075 1601.36 118.361C1603.81 118.835 1605.81 118.867 1605.81 118.43C1605.81 116.301 1595.71 106.768 1590.93 104.378C1584.3 101.068 1575.95 100.785 1569.64 103.656ZM1513.72 108.139C1500.28 115.364 1495.58 118.701 1487.46 126.791C1476.12 138.089 1471.33 150.156 1472.08 165.556C1472.6 176.37 1475.65 183.963 1482.45 191.354C1491.13 200.798 1502.59 205.354 1519.49 206.083L1529.95 206.535L1523.23 204.974C1508.63 201.58 1498.73 194.63 1493.37 184.013C1484.84 167.109 1495.06 151.279 1523.37 137.555C1534.47 132.173 1535.66 131.33 1535.16 129.208C1534.5 126.333 1525.34 104.593 1524.35 103.549C1523.96 103.139 1519.18 105.204 1513.72 108.139ZM1852.22 105.083C1850.55 110.003 1846.46 130.875 1846.46 134.489C1846.46 134.72 1849.64 136.163 1853.52 137.697C1862.65 141.299 1870.17 147.076 1874.15 153.538C1877.05 158.235 1877.32 159.475 1877.3 167.68C1877.28 175.484 1876.88 177.425 1874.31 182.355C1870.74 189.222 1862.5 198.169 1855.66 202.61C1852.9 204.404 1850.64 206.027 1850.64 206.216C1850.64 206.958 1861.37 202.418 1866.07 199.687C1868.81 198.097 1874.35 193.449 1878.38 189.357C1897.22 170.263 1901.63 141.606 1888.32 124.759C1883.79 119.024 1873.18 111.6 1863.4 107.319C1854.57 103.457 1852.89 103.12 1852.22 105.083ZM1679.91 108.754C1676.4 112.427 1673.82 116.344 1673.82 117.972C1673.82 118.358 1675.48 117.21 1677.52 115.419C1681.44 111.961 1686.05 111.139 1687.03 113.721C1687.36 114.577 1687.96 118.707 1688.35 122.899L1689.08 130.52L1690.34 124.961C1694.19 108.017 1688.71 99.517 1679.91 108.754ZM1780.77 116.135C1781.18 123.623 1781.67 125.429 1784.29 129.154C1788.31 134.859 1793.06 137.158 1804.69 139.036C1813.71 140.491 1818.61 142.337 1824.22 146.385C1826.4 147.952 1826.58 147.951 1826.58 146.37C1826.58 142.934 1822.1 135.235 1817.77 131.238C1814.81 128.5 1810.94 126.347 1806.09 124.749C1794.24 120.838 1787.15 116.787 1783.55 111.882L1780.3 107.443L1780.77 116.135ZM1672.57 130.395C1658.9 143.297 1639.93 154.205 1621.5 159.761C1611.51 162.774 1596.09 165.659 1589.97 165.659C1587.75 165.659 1585.93 166.098 1585.93 166.635C1585.93 168.307 1601.43 181.7 1608.76 186.357C1620.08 193.551 1629.69 196.609 1640.86 196.572C1648.25 196.548 1651.35 196.05 1655.26 194.263C1666.02 189.35 1676.28 174.336 1679.59 158.647C1681.17 151.209 1681.77 123.666 1680.36 123.747C1679.92 123.772 1676.42 126.763 1672.57 130.395ZM1635.63 135.817C1633.9 137.246 1629.33 139.369 1625.46 140.533C1621.12 141.842 1617.82 143.528 1616.83 144.948C1614.46 148.333 1614.8 150.346 1617.32 147.827C1618.98 146.156 1620.8 145.729 1626.27 145.729H1633.13L1638.14 140.485C1641.74 136.72 1643.96 135.24 1645.99 135.24C1647.62 135.24 1648.55 134.792 1648.18 134.191C1646.87 132.07 1638.91 133.102 1635.63 135.817ZM1571.31 156.337C1566.2 158.383 1565.91 161.084 1570.26 166.057C1573.24 169.459 1582.54 176.149 1584.29 176.149C1584.73 176.149 1582.67 173.49 1579.7 170.24C1576.74 166.99 1574.46 163.58 1574.64 162.661C1575.08 160.338 1579.39 158.371 1584.36 158.222L1588.54 158.096L1584.36 156.714C1579.35 155.06 1574.83 154.93 1571.31 156.337ZM1721.91 158.788C1718.77 160.776 1714.86 164.098 1713.24 166.169C1709.89 170.442 1705.64 179.334 1704.72 184.016C1704.28 186.211 1704.87 185.509 1706.67 181.692C1711.4 171.621 1720.78 160.259 1727.39 156.582C1728.71 155.846 1729.31 155.228 1728.72 155.207C1728.12 155.187 1725.06 156.798 1721.91 158.788ZM1739.73 159.602C1737.2 160.719 1737.25 160.774 1741.38 161.416C1743.72 161.78 1746.75 163.124 1748.12 164.401C1751.86 167.896 1756.7 168.867 1763.38 167.463C1767.82 166.53 1769.58 166.547 1771.17 167.54C1773.25 168.843 1773.81 168.178 1772.42 166.079C1770.99 163.933 1767.1 162.512 1762.56 162.478C1760.08 162.459 1755.45 161.531 1752.29 160.415C1745.76 158.112 1743.46 157.962 1739.73 159.602ZM1784.48 168.023C1789.99 173.9 1794.04 187.223 1794.26 200.155L1794.37 207.093L1795.36 202.372C1796.81 195.472 1795.64 185.197 1792.67 178.684C1789.74 172.275 1785.02 165.659 1783.37 165.659C1782.76 165.659 1783.26 166.723 1784.48 168.023ZM1736.07 179.719C1724 183.563 1711.01 193.206 1706.98 201.307C1705.5 204.288 1704.54 207.403 1704.86 208.23C1705.8 210.694 1710.12 211.119 1718.63 209.588C1739.68 205.8 1755.55 209.242 1774.24 221.646C1780.32 225.682 1785.13 226.545 1786.18 223.79C1790.6 212.251 1773.75 186.328 1758 180.419C1751.43 177.955 1742.51 177.671 1736.07 179.719ZM1676.06 185.851C1672.48 191.624 1665.22 197.93 1658.64 200.989C1653.13 203.553 1651.11 203.91 1642.04 203.927L1631.7 203.946L1637.33 205.717C1643.82 207.762 1651.71 208.079 1657.31 206.52C1665.09 204.355 1674.73 194.551 1677.82 185.663C1679.26 181.522 1678.71 181.581 1676.06 185.851ZM1527.33 198.059C1522 198.918 1521.47 198.671 1535.7 201.968C1548.8 205.003 1558.71 210.768 1563.62 218.207C1568.74 225.966 1566.55 237.613 1558.56 245.038C1554.57 248.748 1546.06 252.484 1539.89 253.23C1533.17 254.044 1521.5 251.902 1514.7 248.607C1512.22 247.409 1509.83 246.428 1509.37 246.428C1508.92 246.428 1511.57 251.203 1515.28 257.039L1522.01 267.651L1518.31 273.448C1514.03 280.154 1514.16 280.354 1523.7 282.021C1551.31 286.84 1576.33 276.071 1586.23 255.107C1589.31 248.582 1589.59 247.142 1589.59 237.512C1589.59 228.066 1589.29 226.408 1586.56 220.84C1581.18 209.851 1572.64 203.366 1558.83 199.778C1551.42 197.853 1534.39 196.923 1527.33 198.059ZM1859.54 207.554C1842.95 213.351 1825.6 222.868 1816.25 231.298C1808.2 238.555 1805.25 245.535 1804.78 258.477C1804.34 270.476 1806.05 278.785 1810.93 288.487C1815.69 297.923 1815.61 297.975 1819.33 282.861C1820 280.111 1820.85 277.68 1821.21 277.459C1821.57 277.238 1825.17 277.415 1829.19 277.852C1833.22 278.289 1836.64 278.549 1836.8 278.428C1836.95 278.307 1835.54 274.953 1833.66 270.972C1830.51 264.302 1830.24 262.912 1830.24 253.227C1830.24 243.491 1830.49 242.221 1833.62 235.92C1838.84 225.39 1848.2 216.506 1862.15 208.82C1871.31 203.776 1870.91 203.58 1859.54 207.554ZM1727.18 217.054C1729.77 217.5 1735.88 218.433 1740.77 219.127C1745.66 219.821 1753.17 221.509 1757.47 222.877C1761.76 224.245 1765.41 225.232 1765.57 225.069C1766.25 224.396 1753.4 219.035 1747.62 217.58C1744.1 216.692 1737.27 216.06 1731.93 216.126C1723.88 216.226 1723.17 216.364 1727.18 217.054Z" fill="#531B24"/>
</svg>
