<svg width="1415" height="888" viewBox="0 0 1415 888" fill="none" xmlns="http://www.w3.org/2000/svg">
<path d="M0 0.515625H112.484V685.69L53.6229 626.324L0 685.69V0.515625Z" fill="#EDD0A6"/>
<path d="M185.988 46.1191H298.472V731.294L241.569 663.635L185.988 731.294V46.1191Z" fill="#EDD0A6"/>
<path d="M371.984 112.857H484.468V798.032L427.338 729.704L371.984 798.032V112.857Z" fill="#EDD0A6"/>
<path d="M557.972 201.842H670.456V887.016L613.436 819.775L557.972 887.016V201.842Z" fill="#EDD0A6"/>
<path d="M743.958 201.842H856.443V887.016L797.357 818.053L743.958 887.016V201.842Z" fill="#EDD0A6"/>
<path d="M929.946 112.857H1042.43V798.032L984.152 733.096L929.946 798.032V112.857Z" fill="#EDD0A6"/>
<path d="M1115.93 46.1191H1228.42V731.294L1173.25 664.209L1115.93 731.294V46.1191Z" fill="#EDD0A6"/>
<path d="M1301.92 0.515625H1414.41V685.69L1358.32 619.435L1301.92 685.69V0.515625Z" fill="#EDD0A6"/>
<line x1="16.4933" y1="18.4162" x2="90.187" y2="18.4162" stroke="#531B24" stroke-width="2.64815" stroke-linecap="round" stroke-linejoin="round" stroke-dasharray="5.3 5.3"/>
<line x1="92.8351" y1="19.9422" x2="92.835" y2="632.863" stroke="#531B24" stroke-width="2.64815" stroke-linecap="round" stroke-linejoin="round" stroke-dasharray="5.3 5.3"/>
<line x1="1.32408" y1="-1.32408" x2="52.6237" y2="-1.32408" transform="matrix(-0.707554 -0.706659 0.707554 -0.706659 92.634 634.188)" stroke="#531B24" stroke-width="2.64815" stroke-linecap="round" stroke-linejoin="round" stroke-dasharray="5.3 5.3"/>
<line x1="16.4933" y1="21.0643" x2="16.4932" y2="632.864" stroke="#531B24" stroke-width="2.64815" stroke-linecap="round" stroke-linejoin="round" stroke-dasharray="5.3 5.3"/>
<line x1="1.32408" y1="-1.32408" x2="52.6237" y2="-1.32408" transform="matrix(0.707554 -0.706659 0.707554 0.706659 16.292 634.188)" stroke="#531B24" stroke-width="2.64815" stroke-linecap="round" stroke-linejoin="round" stroke-dasharray="5.3 5.3"/>
<line x1="203.98" y1="61.0216" x2="277.674" y2="61.0216" stroke="#531B24" stroke-width="2.64815" stroke-linecap="round" stroke-linejoin="round" stroke-dasharray="5.3 5.3"/>
<line x1="280.322" y1="62.5487" x2="280.322" y2="675.47" stroke="#531B24" stroke-width="2.64815" stroke-linecap="round" stroke-linejoin="round" stroke-dasharray="5.3 5.3"/>
<line x1="1.32408" y1="-1.32408" x2="52.6237" y2="-1.32408" transform="matrix(-0.707554 -0.706659 0.707554 -0.706659 280.121 676.793)" stroke="#531B24" stroke-width="2.64815" stroke-linecap="round" stroke-linejoin="round" stroke-dasharray="5.3 5.3"/>
<line x1="203.98" y1="63.6698" x2="203.98" y2="675.47" stroke="#531B24" stroke-width="2.64815" stroke-linecap="round" stroke-linejoin="round" stroke-dasharray="5.3 5.3"/>
<line x1="1.32408" y1="-1.32408" x2="52.6237" y2="-1.32408" transform="matrix(0.707554 -0.706659 0.707554 0.706659 203.779 676.793)" stroke="#531B24" stroke-width="2.64815" stroke-linecap="round" stroke-linejoin="round" stroke-dasharray="5.3 5.3"/>
<line x1="390.344" y1="128.296" x2="464.038" y2="128.296" stroke="#531B24" stroke-width="2.64815" stroke-linecap="round" stroke-linejoin="round" stroke-dasharray="5.3 5.3"/>
<line x1="466.686" y1="129.823" x2="466.686" y2="742.744" stroke="#531B24" stroke-width="2.64815" stroke-linecap="round" stroke-linejoin="round" stroke-dasharray="5.3 5.3"/>
<line x1="1.32408" y1="-1.32408" x2="52.6237" y2="-1.32408" transform="matrix(-0.707554 -0.706659 0.707554 -0.706659 466.485 744.067)" stroke="#531B24" stroke-width="2.64815" stroke-linecap="round" stroke-linejoin="round" stroke-dasharray="5.3 5.3"/>
<line x1="390.344" y1="130.944" x2="390.344" y2="742.744" stroke="#531B24" stroke-width="2.64815" stroke-linecap="round" stroke-linejoin="round" stroke-dasharray="5.3 5.3"/>
<line x1="1.32408" y1="-1.32408" x2="52.6237" y2="-1.32408" transform="matrix(0.707554 -0.706659 0.707554 0.706659 390.143 744.067)" stroke="#531B24" stroke-width="2.64815" stroke-linecap="round" stroke-linejoin="round" stroke-dasharray="5.3 5.3"/>
<line x1="576.708" y1="223.605" x2="650.402" y2="223.605" stroke="#531B24" stroke-width="2.64815" stroke-linecap="round" stroke-linejoin="round" stroke-dasharray="5.3 5.3"/>
<line x1="653.05" y1="225.132" x2="653.05" y2="838.053" stroke="#531B24" stroke-width="2.64815" stroke-linecap="round" stroke-linejoin="round" stroke-dasharray="5.3 5.3"/>
<line x1="1.32408" y1="-1.32408" x2="52.6237" y2="-1.32408" transform="matrix(-0.707554 -0.706659 0.707554 -0.706659 652.849 839.376)" stroke="#531B24" stroke-width="2.64815" stroke-linecap="round" stroke-linejoin="round" stroke-dasharray="5.3 5.3"/>
<line x1="576.708" y1="226.253" x2="576.708" y2="838.053" stroke="#531B24" stroke-width="2.64815" stroke-linecap="round" stroke-linejoin="round" stroke-dasharray="5.3 5.3"/>
<line x1="1.32408" y1="-1.32408" x2="52.6237" y2="-1.32408" transform="matrix(0.707554 -0.706659 0.707554 0.706659 576.507 839.376)" stroke="#531B24" stroke-width="2.64815" stroke-linecap="round" stroke-linejoin="round" stroke-dasharray="5.3 5.3"/>
<line x1="763.073" y1="224.725" x2="836.766" y2="224.725" stroke="#531B24" stroke-width="2.64815" stroke-linecap="round" stroke-linejoin="round" stroke-dasharray="5.3 5.3"/>
<line x1="839.414" y1="226.251" x2="839.414" y2="839.172" stroke="#531B24" stroke-width="2.64815" stroke-linecap="round" stroke-linejoin="round" stroke-dasharray="5.3 5.3"/>
<line x1="1.32408" y1="-1.32408" x2="52.6237" y2="-1.32408" transform="matrix(-0.707554 -0.706659 0.707554 -0.706659 839.213 840.496)" stroke="#531B24" stroke-width="2.64815" stroke-linecap="round" stroke-linejoin="round" stroke-dasharray="5.3 5.3"/>
<line x1="763.073" y1="227.373" x2="763.073" y2="839.173" stroke="#531B24" stroke-width="2.64815" stroke-linecap="round" stroke-linejoin="round" stroke-dasharray="5.3 5.3"/>
<line x1="1.32408" y1="-1.32408" x2="52.6237" y2="-1.32408" transform="matrix(0.707554 -0.706659 0.707554 0.706659 762.871 840.496)" stroke="#531B24" stroke-width="2.64815" stroke-linecap="round" stroke-linejoin="round" stroke-dasharray="5.3 5.3"/>
<line x1="950.559" y1="131.661" x2="1024.25" y2="131.661" stroke="#531B24" stroke-width="2.64815" stroke-linecap="round" stroke-linejoin="round" stroke-dasharray="5.3 5.3"/>
<line x1="1026.9" y1="133.188" x2="1026.9" y2="746.109" stroke="#531B24" stroke-width="2.64815" stroke-linecap="round" stroke-linejoin="round" stroke-dasharray="5.3 5.3"/>
<line x1="1.32408" y1="-1.32408" x2="52.6237" y2="-1.32408" transform="matrix(-0.707554 -0.706659 0.707554 -0.706659 1026.7 747.433)" stroke="#531B24" stroke-width="2.64815" stroke-linecap="round" stroke-linejoin="round" stroke-dasharray="5.3 5.3"/>
<line x1="950.559" y1="134.309" x2="950.559" y2="746.109" stroke="#531B24" stroke-width="2.64815" stroke-linecap="round" stroke-linejoin="round" stroke-dasharray="5.3 5.3"/>
<line x1="1.32408" y1="-1.32408" x2="52.6237" y2="-1.32408" transform="matrix(0.707554 -0.706659 0.707554 0.706659 950.358 747.433)" stroke="#531B24" stroke-width="2.64815" stroke-linecap="round" stroke-linejoin="round" stroke-dasharray="5.3 5.3"/>
<line x1="1134.68" y1="64.3859" x2="1208.37" y2="64.3859" stroke="#531B24" stroke-width="2.64815" stroke-linecap="round" stroke-linejoin="round" stroke-dasharray="5.3 5.3"/>
<line x1="1211.02" y1="65.9139" x2="1211.02" y2="678.835" stroke="#531B24" stroke-width="2.64815" stroke-linecap="round" stroke-linejoin="round" stroke-dasharray="5.3 5.3"/>
<line x1="1.32408" y1="-1.32408" x2="52.6237" y2="-1.32408" transform="matrix(-0.707554 -0.706659 0.707554 -0.706659 1210.82 680.159)" stroke="#531B24" stroke-width="2.64815" stroke-linecap="round" stroke-linejoin="round" stroke-dasharray="5.3 5.3"/>
<line x1="1134.68" y1="67.034" x2="1134.68" y2="678.834" stroke="#531B24" stroke-width="2.64815" stroke-linecap="round" stroke-linejoin="round" stroke-dasharray="5.3 5.3"/>
<line x1="1.32408" y1="-1.32408" x2="52.6237" y2="-1.32408" transform="matrix(0.707554 -0.706659 0.707554 0.706659 1134.48 680.159)" stroke="#531B24" stroke-width="2.64815" stroke-linecap="round" stroke-linejoin="round" stroke-dasharray="5.3 5.3"/>
<line x1="1322.17" y1="17.2931" x2="1395.86" y2="17.2931" stroke="#531B24" stroke-width="2.64815" stroke-linecap="round" stroke-linejoin="round" stroke-dasharray="5.3 5.3"/>
<line x1="1398.51" y1="18.8202" x2="1398.51" y2="631.741" stroke="#531B24" stroke-width="2.64815" stroke-linecap="round" stroke-linejoin="round" stroke-dasharray="5.3 5.3"/>
<line x1="1.32408" y1="-1.32408" x2="52.6237" y2="-1.32408" transform="matrix(-0.707554 -0.706659 0.707554 -0.706659 1398.31 633.064)" stroke="#531B24" stroke-width="2.64815" stroke-linecap="round" stroke-linejoin="round" stroke-dasharray="5.3 5.3"/>
<line x1="1322.17" y1="19.9413" x2="1322.17" y2="631.741" stroke="#531B24" stroke-width="2.64815" stroke-linecap="round" stroke-linejoin="round" stroke-dasharray="5.3 5.3"/>
<line x1="1.32408" y1="-1.32408" x2="52.6237" y2="-1.32408" transform="matrix(0.707554 -0.706659 0.707554 0.706659 1321.96 633.064)" stroke="#531B24" stroke-width="2.64815" stroke-linecap="round" stroke-linejoin="round" stroke-dasharray="5.3 5.3"/>
</svg>
