<svg width="1491" height="1096" viewBox="0 0 1491 1096" fill="none" xmlns="http://www.w3.org/2000/svg">
<line x1="1374.86" y1="351.098" x2="1374.86" y2="4.1539" stroke="#EDD0A6" stroke-width="0.985996"/>
<path d="M250.151 239.083L245.201 236.272L245.241 241.964L250.151 239.083ZM109.154 240.069L114.103 242.881L114.064 237.189L109.154 240.069ZM245.711 238.622L113.587 239.545L113.594 240.531L245.718 239.608L245.711 238.622Z" fill="#EDD0A6"/>
<path d="M188.033 541.785L183.103 538.938L183.103 544.631L188.033 541.785ZM126.901 541.785L131.831 544.631L131.831 538.938L126.901 541.785ZM183.596 541.292L131.338 541.292L131.338 542.278L183.596 542.278L183.596 541.292Z" fill="#EDD0A6"/>
<path d="M211.697 523.051L214.543 518.121L208.85 518.121L211.697 523.051ZM211.697 479.667L208.85 484.597L214.543 484.597L211.697 479.667ZM212.19 518.614L212.19 484.104L211.204 484.104L211.204 518.614L212.19 518.614Z" fill="#EDD0A6"/>
<path d="M617.927 239.083L612.997 236.237V241.93L617.927 239.083ZM504.538 239.083L509.468 241.93V236.237L504.538 239.083ZM613.49 238.59H508.975V239.576H613.49V238.59Z" fill="#EDD0A6"/>
<path d="M1246.99 239.083L1242.06 236.237V241.93L1246.99 239.083ZM1105.01 239.083L1109.94 241.93V236.237L1105.01 239.083ZM1242.56 238.59L1109.45 238.59V239.576L1242.56 239.576V238.59Z" fill="#EDD0A6"/>
<path d="M168.789 219.029V214.977L167.468 215.184L167.34 214.602C167.629 214.517 168.043 214.356 168.582 214.119C169.121 213.876 169.456 213.705 169.588 213.606L169.992 213.685L169.972 219.029L171.205 219.177V219.7H167.438V219.177L168.789 219.029ZM172.041 219.226C172.922 218.681 173.664 218.086 174.269 217.442C174.881 216.791 175.186 216.19 175.186 215.637C175.186 215.302 175.084 215.013 174.881 214.77C174.683 214.527 174.391 214.405 174.003 214.405C173.701 214.405 173.405 214.474 173.116 214.612C172.826 214.743 172.567 214.908 172.337 215.105L172.041 214.642C172.238 214.372 172.567 214.135 173.027 213.932C173.487 213.721 173.947 213.616 174.407 213.616C174.821 213.616 175.183 213.692 175.492 213.843C175.801 213.994 176.037 214.198 176.202 214.454C176.366 214.711 176.448 214.993 176.448 215.302C176.448 215.953 176.172 216.594 175.62 217.225C175.068 217.849 174.332 218.447 173.411 219.019L176.074 218.763L176.527 218.132L177.05 218.29L176.724 219.7H172.218L172.041 219.226ZM178.041 220.774C178.107 220.781 178.205 220.784 178.337 220.784C178.784 220.784 179.205 220.692 179.599 220.508C180 220.324 180.322 220.065 180.565 219.729C180.808 219.401 180.93 219.019 180.93 218.586C180.93 218.04 180.795 217.639 180.526 217.383C180.263 217.126 179.901 216.998 179.441 216.998C179.106 216.998 178.751 217.057 178.376 217.176L178.051 217.018L178.396 213.744H181.167L181.305 213.626H181.886L181.591 214.72H179.244L178.909 216.545C179.283 216.387 179.665 216.308 180.052 216.308C180.44 216.308 180.799 216.39 181.127 216.554C181.456 216.719 181.716 216.962 181.906 217.284C182.103 217.606 182.202 217.991 182.202 218.438C182.202 218.95 182.038 219.433 181.709 219.887C181.38 220.341 180.937 220.702 180.378 220.972C179.819 221.248 179.214 221.386 178.564 221.386C178.34 221.386 178.163 221.366 178.031 221.327L178.041 220.774ZM186.571 214.149C187.215 214.149 187.731 214.375 188.119 214.829C188.513 215.282 188.711 215.95 188.711 216.83C188.711 217.376 188.586 217.879 188.336 218.339C188.093 218.793 187.754 219.151 187.32 219.414C186.893 219.677 186.41 219.808 185.871 219.808C185.621 219.808 185.345 219.772 185.043 219.7L185.082 220.804V221.544L186.048 221.652V222.165H183.228V221.652L183.879 221.534V215.45L183.209 215.046V214.632L184.668 214.198L184.924 214.287V214.878C185.062 214.688 185.286 214.52 185.595 214.375C185.91 214.224 186.236 214.149 186.571 214.149ZM186.068 214.868C185.858 214.868 185.667 214.914 185.496 215.006C185.325 215.098 185.184 215.2 185.072 215.312L185.082 218.793C185.148 218.911 185.266 219.006 185.437 219.079C185.615 219.144 185.818 219.177 186.048 219.177C186.318 219.177 186.564 219.092 186.788 218.921C187.011 218.743 187.186 218.487 187.31 218.152C187.442 217.816 187.508 217.415 187.508 216.949C187.508 216.278 187.373 215.766 187.103 215.411C186.834 215.049 186.489 214.868 186.068 214.868ZM191.426 214.316H193.043V215.016H191.455V217.215C191.455 217.721 191.465 218.093 191.485 218.329C191.511 218.566 191.56 218.743 191.633 218.862C191.712 218.973 191.84 219.029 192.017 219.029C192.155 219.029 192.323 219.006 192.52 218.96C192.724 218.914 192.865 218.865 192.944 218.812L193.141 219.286C192.977 219.45 192.731 219.581 192.402 219.68C192.08 219.772 191.771 219.818 191.475 219.818C191.054 219.818 190.749 219.696 190.558 219.453C190.367 219.21 190.272 218.825 190.272 218.3V215.016H189.542V214.592C189.851 214.513 190.055 214.454 190.154 214.415C190.259 214.369 190.351 214.283 190.43 214.158C190.528 213.988 190.663 213.61 190.834 213.025H191.426V214.316Z" fill="#EDD0A6"/>
<path d="M147.024 559.958C147.09 559.964 147.188 559.967 147.32 559.967C147.767 559.967 148.187 559.875 148.582 559.691C148.983 559.507 149.305 559.248 149.548 558.912C149.791 558.584 149.913 558.202 149.913 557.769C149.913 557.223 149.778 556.822 149.509 556.566C149.246 556.309 148.884 556.181 148.424 556.181C148.089 556.181 147.734 556.24 147.359 556.359L147.034 556.201L147.379 552.927H150.15L150.288 552.809H150.869L150.574 553.904H148.227L147.892 555.728C148.266 555.57 148.648 555.491 149.035 555.491C149.423 555.491 149.781 555.573 150.11 555.737C150.439 555.902 150.698 556.145 150.889 556.467C151.086 556.789 151.185 557.174 151.185 557.621C151.185 558.133 151.021 558.617 150.692 559.07C150.363 559.524 149.92 559.885 149.361 560.155C148.802 560.431 148.197 560.569 147.547 560.569C147.323 560.569 147.146 560.549 147.014 560.51L147.024 559.958ZM152.645 557.374C153.257 556.303 153.733 555.452 154.075 554.821C154.423 554.183 154.765 553.493 155.1 552.75H155.465L156.224 553.292L153.434 557.759L153.089 558.242L155.465 558.064L155.495 555.964L156.52 555.757V557.976L157.477 557.907V558.883H156.52V560.697H155.416L155.445 558.883H152.251L152.073 558.37L152.645 557.374ZM161.688 553.332C162.332 553.332 162.848 553.558 163.236 554.012C163.63 554.466 163.827 555.133 163.827 556.014C163.827 556.559 163.702 557.062 163.452 557.522C163.209 557.976 162.871 558.334 162.437 558.597C162.01 558.86 161.526 558.991 160.987 558.991C160.738 558.991 160.462 558.955 160.159 558.883L160.199 559.987V560.727L161.165 560.835V561.348H158.345V560.835L158.996 560.717V554.633L158.325 554.229V553.815L159.785 553.381L160.041 553.47V554.061C160.179 553.871 160.402 553.703 160.711 553.558C161.027 553.407 161.352 553.332 161.688 553.332ZM161.185 554.051C160.974 554.051 160.784 554.097 160.613 554.189C160.442 554.281 160.301 554.383 160.189 554.495L160.199 557.976C160.264 558.094 160.383 558.189 160.554 558.262C160.731 558.327 160.935 558.36 161.165 558.36C161.434 558.36 161.681 558.275 161.904 558.104C162.128 557.926 162.302 557.67 162.427 557.335C162.558 557 162.624 556.599 162.624 556.132C162.624 555.461 162.489 554.949 162.22 554.594C161.95 554.232 161.605 554.051 161.185 554.051ZM166.542 553.499H168.159V554.199H166.572V556.398C166.572 556.904 166.582 557.276 166.601 557.512C166.628 557.749 166.677 557.926 166.749 558.045C166.828 558.156 166.956 558.212 167.134 558.212C167.272 558.212 167.439 558.189 167.637 558.143C167.84 558.097 167.982 558.048 168.061 557.995L168.258 558.469C168.094 558.633 167.847 558.764 167.518 558.863C167.196 558.955 166.887 559.001 166.592 559.001C166.171 559.001 165.865 558.88 165.675 558.636C165.484 558.393 165.389 558.009 165.389 557.483V554.199H164.659V553.775C164.968 553.696 165.172 553.637 165.27 553.598C165.375 553.552 165.467 553.466 165.546 553.342C165.645 553.171 165.78 552.793 165.951 552.208H166.542V553.499Z" fill="#EDD0A6"/>
<path d="M218.869 496.567C219.401 496.567 219.848 496.702 220.21 496.972C220.571 497.241 220.752 497.639 220.752 498.165C220.752 498.408 220.677 498.661 220.525 498.924C220.374 499.18 220.177 499.407 219.934 499.604C219.697 499.802 219.447 499.936 219.184 500.009C219.605 500.002 219.967 500.071 220.269 500.216C220.571 500.36 220.801 500.561 220.959 500.817C221.117 501.067 221.196 501.353 221.196 501.675C221.196 502.142 221.051 502.572 220.762 502.967C220.473 503.368 220.075 503.686 219.569 503.923C219.063 504.16 218.504 504.278 217.893 504.278C217.584 504.278 217.288 504.252 217.005 504.199V503.548C217.209 503.594 217.429 503.617 217.666 503.617C218.08 503.617 218.461 503.538 218.81 503.381C219.165 503.23 219.444 503.016 219.648 502.74C219.852 502.464 219.953 502.155 219.953 501.813C219.953 501.359 219.835 501.018 219.598 500.788C219.368 500.557 218.99 500.433 218.465 500.413C218.307 500.452 218.189 500.479 218.11 500.492L217.636 500.59V499.861C218.156 499.782 218.603 499.604 218.977 499.328C219.352 499.052 219.539 498.73 219.539 498.362C219.539 498.014 219.441 497.757 219.244 497.593C219.053 497.422 218.81 497.337 218.514 497.337C218.198 497.337 217.932 497.379 217.715 497.465C217.505 497.55 217.272 497.678 217.015 497.849L216.7 497.356C216.93 497.139 217.235 496.955 217.617 496.804C217.998 496.646 218.415 496.567 218.869 496.567ZM222.874 504.11C223.473 503.926 224.005 503.604 224.472 503.144C224.945 502.691 225.31 502.171 225.566 501.586C225.829 501.001 225.967 500.436 225.98 499.89L225.99 499.555C225.99 498.845 225.888 498.28 225.685 497.859C225.481 497.432 225.123 497.218 224.61 497.218C224.202 497.218 223.89 497.392 223.673 497.741C223.456 498.083 223.348 498.487 223.348 498.954C223.348 499.453 223.456 499.861 223.673 500.176C223.89 500.485 224.163 500.64 224.491 500.64C224.656 500.64 224.814 500.617 224.965 500.571C225.116 500.525 225.234 500.469 225.32 500.403L225.547 500.817C225.422 500.995 225.221 501.139 224.945 501.251C224.676 501.356 224.386 501.409 224.077 501.409C223.683 501.409 223.341 501.313 223.052 501.123C222.769 500.926 222.556 500.669 222.411 500.354C222.266 500.032 222.194 499.683 222.194 499.309C222.194 498.842 222.299 498.405 222.51 497.997C222.727 497.59 223.029 497.264 223.417 497.021C223.811 496.771 224.265 496.646 224.777 496.646C225.284 496.646 225.721 496.771 226.089 497.021C226.457 497.271 226.74 497.609 226.937 498.037C227.134 498.457 227.233 498.924 227.233 499.437C227.233 500.258 227.035 501.047 226.641 501.803C226.253 502.559 225.74 503.19 225.103 503.696C224.472 504.202 223.811 504.518 223.121 504.643L222.874 504.11ZM231.689 497.13C232.333 497.13 232.849 497.356 233.237 497.81C233.631 498.263 233.828 498.931 233.828 499.811C233.828 500.357 233.704 500.86 233.454 501.32C233.211 501.774 232.872 502.132 232.438 502.395C232.011 502.658 231.528 502.789 230.989 502.789C230.739 502.789 230.463 502.753 230.161 502.681L230.2 503.785V504.524L231.166 504.633V505.146H228.346V504.633L228.997 504.515V498.431L228.327 498.027V497.613L229.786 497.179L230.042 497.268V497.859C230.18 497.669 230.404 497.501 230.713 497.356C231.028 497.205 231.354 497.13 231.689 497.13ZM231.186 497.849C230.976 497.849 230.785 497.895 230.614 497.987C230.443 498.079 230.302 498.181 230.19 498.293L230.2 501.774C230.266 501.892 230.384 501.987 230.555 502.059C230.732 502.125 230.936 502.158 231.166 502.158C231.436 502.158 231.682 502.073 231.906 501.902C232.129 501.724 232.303 501.468 232.428 501.133C232.56 500.797 232.625 500.396 232.625 499.93C232.625 499.259 232.491 498.747 232.221 498.392C231.952 498.03 231.607 497.849 231.186 497.849ZM236.544 497.297H238.161V497.997H236.573V500.196C236.573 500.702 236.583 501.073 236.603 501.31C236.629 501.547 236.678 501.724 236.751 501.843C236.829 501.954 236.958 502.01 237.135 502.01C237.273 502.01 237.441 501.987 237.638 501.941C237.842 501.895 237.983 501.846 238.062 501.793L238.259 502.267C238.095 502.431 237.848 502.562 237.52 502.661C237.198 502.753 236.889 502.799 236.593 502.799C236.172 502.799 235.866 502.677 235.676 502.434C235.485 502.191 235.39 501.806 235.39 501.281V497.997H234.66V497.573C234.969 497.494 235.173 497.435 235.272 497.396C235.377 497.35 235.469 497.264 235.548 497.139C235.646 496.968 235.781 496.59 235.952 496.005H236.544V497.297Z" fill="#EDD0A6"/>
<path d="M552.399 219.029V214.977L551.078 215.184L550.949 214.602C551.239 214.517 551.653 214.356 552.192 214.119C552.731 213.876 553.066 213.705 553.198 213.606L553.602 213.685L553.582 219.029L554.815 219.177V219.7H551.048V219.177L552.399 219.029ZM558.49 213.675C559.365 213.675 560.009 213.945 560.423 214.484C560.837 215.016 561.044 215.743 561.044 216.663C561.044 217.261 560.922 217.803 560.679 218.29C560.443 218.77 560.117 219.148 559.703 219.424C559.289 219.693 558.832 219.828 558.333 219.828C557.754 219.828 557.264 219.69 556.863 219.414C556.469 219.131 556.173 218.756 555.976 218.29C555.785 217.816 555.69 217.291 555.69 216.712C555.69 216.114 555.815 215.585 556.065 215.125C556.321 214.658 556.663 214.3 557.09 214.05C557.517 213.8 557.984 213.675 558.49 213.675ZM558.323 214.267C557.843 214.267 557.501 214.467 557.297 214.868C557.1 215.269 557.001 215.844 557.001 216.594C557.001 217.028 557.054 217.448 557.159 217.856C557.264 218.257 557.419 218.586 557.623 218.842C557.833 219.098 558.089 219.23 558.392 219.236C558.885 219.249 559.23 219.042 559.427 218.615C559.624 218.188 559.723 217.567 559.723 216.752C559.723 216.022 559.608 215.427 559.378 214.967C559.148 214.5 558.796 214.267 558.323 214.267ZM563.52 219.029V214.977L562.199 215.184L562.071 214.602C562.36 214.517 562.774 214.356 563.313 214.119C563.852 213.876 564.187 213.705 564.319 213.606L564.723 213.685L564.703 219.029L565.936 219.177V219.7H562.169V219.177L563.52 219.029ZM570.065 214.149C570.709 214.149 571.225 214.375 571.613 214.829C572.008 215.282 572.205 215.95 572.205 216.83C572.205 217.376 572.08 217.879 571.83 218.339C571.587 218.793 571.248 219.151 570.815 219.414C570.387 219.677 569.904 219.808 569.365 219.808C569.115 219.808 568.839 219.772 568.537 219.7L568.576 220.804V221.544L569.543 221.652V222.165H566.723V221.652L567.373 221.534V215.45L566.703 215.046V214.632L568.162 214.198L568.419 214.287V214.878C568.557 214.688 568.78 214.52 569.089 214.375C569.405 214.224 569.73 214.149 570.065 214.149ZM569.562 214.868C569.352 214.868 569.161 214.914 568.99 215.006C568.82 215.098 568.678 215.2 568.567 215.312L568.576 218.793C568.642 218.911 568.76 219.006 568.931 219.079C569.109 219.144 569.313 219.177 569.543 219.177C569.812 219.177 570.059 219.092 570.282 218.921C570.506 218.743 570.68 218.487 570.805 218.152C570.936 217.816 571.002 217.415 571.002 216.949C571.002 216.278 570.867 215.766 570.598 215.411C570.328 215.049 569.983 214.868 569.562 214.868ZM574.92 214.316H576.537V215.016H574.95V217.215C574.95 217.721 574.959 218.093 574.979 218.329C575.005 218.566 575.055 218.743 575.127 218.862C575.206 218.973 575.334 219.029 575.512 219.029C575.65 219.029 575.817 219.006 576.014 218.96C576.218 218.914 576.359 218.865 576.438 218.812L576.636 219.286C576.471 219.45 576.225 219.581 575.896 219.68C575.574 219.772 575.265 219.818 574.969 219.818C574.549 219.818 574.243 219.696 574.052 219.453C573.862 219.21 573.766 218.825 573.766 218.3V215.016H573.037V214.592C573.346 214.513 573.549 214.454 573.648 214.415C573.753 214.369 573.845 214.283 573.924 214.158C574.023 213.988 574.157 213.61 574.328 213.025H574.92V214.316Z" fill="#EDD0A6"/>
<path d="M1164.64 219.029V214.977L1163.32 215.184L1163.2 214.602C1163.48 214.517 1163.9 214.356 1164.44 214.119C1164.98 213.876 1165.31 213.705 1165.44 213.606L1165.85 213.685L1165.83 219.029L1167.06 219.177V219.7H1163.29V219.177L1164.64 219.029ZM1167.9 219.226C1168.78 218.681 1169.52 218.086 1170.12 217.442C1170.74 216.791 1171.04 216.19 1171.04 215.637C1171.04 215.302 1170.94 215.013 1170.74 214.77C1170.54 214.527 1170.25 214.405 1169.86 214.405C1169.56 214.405 1169.26 214.474 1168.97 214.612C1168.68 214.743 1168.42 214.908 1168.19 215.105L1167.9 214.642C1168.09 214.372 1168.42 214.135 1168.88 213.932C1169.34 213.721 1169.8 213.616 1170.26 213.616C1170.68 213.616 1171.04 213.692 1171.35 213.843C1171.66 213.994 1171.89 214.198 1172.06 214.454C1172.22 214.711 1172.3 214.993 1172.3 215.302C1172.3 215.953 1172.03 216.594 1171.48 217.225C1170.92 217.849 1170.19 218.447 1169.27 219.019L1171.93 218.763L1172.38 218.132L1172.91 218.29L1172.58 219.7H1168.07L1167.9 219.226ZM1173.9 220.774C1173.96 220.781 1174.06 220.784 1174.19 220.784C1174.64 220.784 1175.06 220.692 1175.45 220.508C1175.86 220.324 1176.18 220.065 1176.42 219.729C1176.66 219.401 1176.79 219.019 1176.79 218.586C1176.79 218.04 1176.65 217.639 1176.38 217.383C1176.12 217.126 1175.76 216.998 1175.3 216.998C1174.96 216.998 1174.61 217.057 1174.23 217.176L1173.91 217.018L1174.25 213.744H1177.02L1177.16 213.626H1177.74L1177.45 214.72H1175.1L1174.76 216.545C1175.14 216.387 1175.52 216.308 1175.91 216.308C1176.3 216.308 1176.65 216.39 1176.98 216.554C1177.31 216.719 1177.57 216.962 1177.76 217.284C1177.96 217.606 1178.06 217.991 1178.06 218.438C1178.06 218.95 1177.89 219.433 1177.56 219.887C1177.24 220.341 1176.79 220.702 1176.23 220.972C1175.67 221.248 1175.07 221.386 1174.42 221.386C1174.2 221.386 1174.02 221.366 1173.89 221.327L1173.9 220.774ZM1182.43 214.149C1183.07 214.149 1183.59 214.375 1183.97 214.829C1184.37 215.282 1184.57 215.95 1184.57 216.83C1184.57 217.376 1184.44 217.879 1184.19 218.339C1183.95 218.793 1183.61 219.151 1183.18 219.414C1182.75 219.677 1182.27 219.808 1181.73 219.808C1181.48 219.808 1181.2 219.772 1180.9 219.7L1180.94 220.804V221.544L1181.9 221.652V222.165H1179.08V221.652L1179.73 221.534V215.45L1179.06 215.046V214.632L1180.52 214.198L1180.78 214.287V214.878C1180.92 214.688 1181.14 214.52 1181.45 214.375C1181.77 214.224 1182.09 214.149 1182.43 214.149ZM1181.92 214.868C1181.71 214.868 1181.52 214.914 1181.35 215.006C1181.18 215.098 1181.04 215.2 1180.93 215.312L1180.94 218.793C1181 218.911 1181.12 219.006 1181.29 219.079C1181.47 219.144 1181.67 219.177 1181.9 219.177C1182.17 219.177 1182.42 219.092 1182.64 218.921C1182.87 218.743 1183.04 218.487 1183.17 218.152C1183.3 217.816 1183.36 217.415 1183.36 216.949C1183.36 216.278 1183.23 215.766 1182.96 215.411C1182.69 215.049 1182.34 214.868 1181.92 214.868ZM1187.28 214.316H1188.9V215.016H1187.31V217.215C1187.31 217.721 1187.32 218.093 1187.34 218.329C1187.37 218.566 1187.42 218.743 1187.49 218.862C1187.57 218.973 1187.7 219.029 1187.87 219.029C1188.01 219.029 1188.18 219.006 1188.38 218.96C1188.58 218.914 1188.72 218.865 1188.8 218.812L1189 219.286C1188.83 219.45 1188.59 219.581 1188.26 219.68C1187.94 219.772 1187.63 219.818 1187.33 219.818C1186.91 219.818 1186.6 219.696 1186.41 219.453C1186.22 219.21 1186.13 218.825 1186.13 218.3V215.016H1185.4V214.592C1185.71 214.513 1185.91 214.454 1186.01 214.415C1186.11 214.369 1186.21 214.283 1186.29 214.158C1186.38 213.988 1186.52 213.61 1186.69 213.025H1187.28V214.316Z" fill="#EDD0A6"/>
<line x1="107.674" y1="243.027" x2="107.674" y2="523.05" stroke="#EDD0A6" stroke-width="2.95799" stroke-dasharray="5.92 5.92"/>
<line x1="124.32" y1="478.085" x2="124.32" y2="567.117" stroke="#EDD0A6" stroke-width="2.95799" stroke-dasharray="5.92 5.92"/>
<line x1="189.512" y1="478.681" x2="189.512" y2="565.448" stroke="#EDD0A6" stroke-width="2.95799" stroke-dasharray="5.92 5.92"/>
<line x1="504.044" y1="243.028" x2="504.044" y2="473.751" stroke="#EDD0A6" stroke-width="2.95799" stroke-dasharray="5.92 5.92"/>
<line x1="1104.52" y1="240.069" x2="1104.52" y2="474.736" stroke="#EDD0A6" stroke-width="2.95799" stroke-dasharray="5.92 5.92"/>
<line x1="620.391" y1="243.028" x2="620.391" y2="473.751" stroke="#EDD0A6" stroke-width="2.95799" stroke-dasharray="5.92 5.92"/>
<line x1="1248.47" y1="240.069" x2="1248.47" y2="474.736" stroke="#EDD0A6" stroke-width="2.95799" stroke-dasharray="5.92 5.92"/>
<line x1="257.545" y1="478.681" x2="257.545" y2="832.654" stroke="#EDD0A6" stroke-width="0.985996"/>
<line y1="-0.492998" x2="353.973" y2="-0.492998" transform="matrix(-4.37115e-08 -1 -1 4.37115e-08 106.195 356.418)" stroke="#EDD0A6" stroke-width="0.985996"/>
<line x1="488.268" y1="477.695" x2="488.268" y2="831.667" stroke="#EDD0A6" stroke-width="0.985996"/>
<line x1="359.103" y1="350.501" x2="358.117" y2="3.43091" stroke="#EDD0A6" stroke-width="0.985996"/>
<line y1="-0.492998" x2="347.072" y2="-0.492998" transform="matrix(0.00284094 -0.999996 -0.999996 -0.00284094 1081.34 351.487)" stroke="#EDD0A6" stroke-width="0.985996"/>
<line x1="964.504" y1="477.695" x2="964.504" y2="831.667" stroke="#EDD0A6" stroke-width="0.985996"/>
<line x1="1103.53" y1="477.695" x2="1103.53" y2="831.667" stroke="#EDD0A6" stroke-width="0.985996"/>
<line x1="488.268" y1="832.652" x2="488.268" y2="1092.96" stroke="#EDD0A6" stroke-width="0.985996"/>
<line x1="358.959" y1="2.09671" x2="359.945" y2="3.08336" stroke="#EDD0A6" stroke-width="0.985996"/>
<line x1="619.405" y1="832.652" x2="619.405" y2="1092.96" stroke="#EDD0A6" stroke-width="0.985996"/>
<path d="M490.404 832.16C490.404 830.708 489.227 829.531 487.775 829.531C486.323 829.531 485.146 830.708 485.146 832.16C485.146 833.612 486.323 834.789 487.775 834.789C489.227 834.789 490.404 833.612 490.404 832.16ZM259.681 832.16C259.681 830.708 258.504 829.531 257.052 829.531C255.6 829.531 254.423 830.708 254.423 832.16C254.423 833.612 255.6 834.789 257.052 834.789C258.504 834.789 259.681 833.612 259.681 832.16ZM487.775 831.667L257.052 831.667L257.052 832.653L487.775 832.653L487.775 831.667Z" fill="#EDD0A6"/>
<path d="M361.239 3.43531C361.242 1.98318 360.067 0.803695 358.615 0.800859C357.163 0.798023 355.984 1.97291 355.981 3.42504C355.978 4.87717 357.153 6.05666 358.605 6.05949C360.057 6.06233 361.237 4.88744 361.239 3.43531ZM108.825 2.94234C108.827 1.49021 107.652 0.310728 106.2 0.307892C104.748 0.305056 103.569 1.47994 103.566 2.93207C103.563 4.38421 104.738 5.56369 106.19 5.56653C107.642 5.56936 108.822 4.39448 108.825 2.94234ZM358.611 2.93718L106.196 2.44421L106.194 3.43021L358.609 3.92317L358.611 2.93718Z" fill="#EDD0A6"/>
<path d="M1079.7 4.41699C1079.7 5.86913 1080.88 7.04631 1082.33 7.04631C1083.78 7.04631 1084.96 5.86913 1084.96 4.41699C1084.96 2.96486 1083.78 1.78767 1082.33 1.78767C1080.88 1.78767 1079.7 2.96486 1079.7 4.41699ZM1372.54 4.41697C1372.54 5.8691 1373.72 7.04629 1375.17 7.04629C1376.62 7.04629 1377.8 5.8691 1377.8 4.41697C1377.8 2.96483 1376.62 1.78764 1375.17 1.78764C1373.72 1.78764 1372.54 2.96483 1372.54 4.41697ZM1082.33 4.90999L1375.17 4.90996L1375.17 3.92397L1082.33 3.92399L1082.33 4.90999Z" fill="#EDD0A6"/>
<path d="M1105.67 1092.96C1105.67 1091.5 1104.49 1090.33 1103.04 1090.33C1101.58 1090.33 1100.41 1091.5 1100.41 1092.96C1100.41 1094.41 1101.58 1095.58 1103.04 1095.58C1104.49 1095.58 1105.67 1094.41 1105.67 1092.96ZM620.556 1092.96C620.556 1091.5 619.379 1090.33 617.927 1090.33C616.475 1090.33 615.298 1091.5 615.298 1092.96C615.298 1094.41 616.475 1095.58 617.927 1095.58C619.379 1095.58 620.556 1094.41 620.556 1092.96ZM1103.04 1092.46H617.927V1093.45H1103.04V1092.46Z" fill="#EDD0A6"/>
<path d="M621.542 832.662C621.547 831.21 620.374 830.028 618.922 830.023C617.47 830.018 616.289 831.19 616.283 832.642C616.278 834.095 617.45 835.276 618.902 835.282C620.355 835.287 621.536 834.114 621.542 832.662ZM490.404 832.169C490.41 830.717 489.237 829.535 487.785 829.53C486.333 829.525 485.151 830.697 485.146 832.149C485.14 833.602 486.313 834.783 487.765 834.789C489.217 834.794 490.399 833.621 490.404 832.169ZM618.914 832.159L487.777 831.666L487.773 832.652L618.911 833.145L618.914 832.159Z" fill="#EDD0A6"/>
<path d="M507.167 3.43018C507.167 1.97804 505.99 0.800854 504.538 0.800854C503.086 0.800854 501.909 1.97804 501.909 3.43018C501.909 4.88231 503.086 6.0595 504.538 6.0595C505.99 6.0595 507.167 4.88231 507.167 3.43018ZM361.24 3.43018C361.24 1.97804 360.063 0.800854 358.611 0.800854C357.159 0.800854 355.981 1.97804 355.981 3.43018C355.981 4.88231 357.159 6.0595 358.611 6.0595C360.063 6.0595 361.24 4.88231 361.24 3.43018ZM504.538 2.93718L358.611 2.93718V3.92317L504.538 3.92317V2.93718Z" fill="#EDD0A6"/>
<path d="M961.382 4.41699C961.382 5.86913 962.559 7.04631 964.011 7.04631C965.464 7.04631 966.641 5.86913 966.641 4.41699C966.641 2.96486 965.464 1.78767 964.011 1.78767C962.559 1.78767 961.382 2.96486 961.382 4.41699ZM1079.7 4.417C1079.7 5.86914 1080.88 7.04632 1082.33 7.04632C1083.78 7.04632 1084.96 5.86914 1084.96 4.417C1084.96 2.96487 1083.78 1.78768 1082.33 1.78768C1080.88 1.78768 1079.7 2.96487 1079.7 4.417ZM964.011 4.90999L1082.33 4.91L1082.33 3.924L964.011 3.92399L964.011 4.90999Z" fill="#EDD0A6"/>
<path d="M1105.67 832.652C1105.67 831.2 1104.49 830.023 1103.04 830.023C1101.58 830.023 1100.41 831.2 1100.41 832.652C1100.41 834.104 1101.58 835.282 1103.04 835.282C1104.49 835.282 1105.67 834.104 1105.67 832.652ZM966.641 832.652C966.641 831.2 965.464 830.023 964.011 830.023C962.559 830.023 961.382 831.2 961.382 832.652C961.382 834.104 962.559 835.282 964.011 835.282C965.464 835.282 966.641 834.104 966.641 832.652ZM1103.04 832.159L964.011 832.159L964.011 833.145L1103.04 833.145L1103.04 832.159Z" fill="#EDD0A6"/>
<path d="M620.557 1092.96C620.557 1091.5 619.379 1090.33 617.927 1090.33C616.475 1090.33 615.298 1091.5 615.298 1092.96C615.298 1094.41 616.475 1095.58 617.927 1095.58C619.379 1095.58 620.557 1094.41 620.557 1092.96ZM490.405 1092.96C490.405 1091.5 489.228 1090.33 487.776 1090.33C486.324 1090.33 485.146 1091.5 485.146 1092.96C485.146 1094.41 486.324 1095.58 487.776 1095.58C489.228 1095.58 490.405 1094.41 490.405 1092.96ZM617.927 1092.46L487.776 1092.46L487.776 1093.45L617.927 1093.45L617.927 1092.46Z" fill="#EDD0A6"/>
<line x1="6.76196" y1="350.115" x2="1491" y2="350.115" stroke="#EDD0A6" stroke-width="3.4963"/>
<line x1="-1.52828e-07" y1="477.465" x2="1491" y2="477.465" stroke="#EDD0A6" stroke-width="3.4963"/>
<line x1="-1.52828e-07" y1="524.798" x2="1491" y2="524.798" stroke="#EDD0A6" stroke-width="3.4963"/>
</svg>
