<svg width="1463" height="184" viewBox="0 0 1463 184" fill="none" xmlns="http://www.w3.org/2000/svg">
<path fill-rule="evenodd" clip-rule="evenodd" d="M35.7062 100.141C34.402 101.47 33.4501 115.431 33.5937 131.163L33.8547 159.763L184.385 159.387L334.912 159.015L333.603 127.947L332.296 96.8825L185.188 97.3015C104.283 97.5338 37.014 98.8094 35.7062 100.141ZM341.2 123.695C339.388 127.155 337.971 137.09 338.051 145.78C338.186 160.581 337.255 162.154 323.239 170.778L308.284 179.984L337.477 179.855C353.531 179.783 366.662 178.849 366.652 177.774C366.642 176.702 362.992 169.569 358.545 161.924L350.456 148.027L358.175 134.188L365.898 120.345L355.194 118.875C347.477 117.813 343.572 119.158 341.2 123.695ZM10.0831 137.382L19.1829 152.328L10.3633 167.695L1.54716 183.059L32.7908 182.774L64.0309 182.489L48.0877 174.17C32.436 166.004 32.1056 165.466 30.1826 145.14L28.2243 124.428L14.6056 123.434L0.986857 122.44L10.0831 137.382ZM48.0718 166.619C48.0983 169.517 69.9841 179.515 71.9369 177.523C76.7647 172.606 68.6179 164.754 58.7813 164.844C52.8828 164.897 48.0634 165.695 48.0718 166.619ZM297.012 168.13C295.886 171.144 295.917 174.541 297.077 175.684C299.894 178.447 320.574 169.528 320.538 165.565C320.487 160.014 299.174 162.338 297.012 168.13Z" fill="#EDD0A6"/>
<path fill-rule="evenodd" clip-rule="evenodd" d="M34.935 15.6462C33.6307 16.9744 32.6789 30.936 32.8224 46.6675L33.0835 75.268L183.614 74.8921L334.141 74.5198L332.831 43.4518L331.525 12.3874L184.417 12.8063C103.511 13.0387 36.2428 14.3143 34.935 15.6462ZM340.429 39.1998C338.617 42.6594 337.2 52.5947 337.279 61.2849C337.414 76.0858 336.484 77.6584 322.468 86.2826L307.513 95.4886L336.706 95.3602C352.76 95.288 365.89 94.3543 365.88 93.2786C365.871 92.2065 362.221 85.0741 357.774 77.4287L349.685 63.532L357.404 49.6927L365.126 35.8498L354.423 34.3799C346.706 33.3179 342.801 34.6628 340.429 39.1998ZM9.31183 52.8872L18.4116 67.8327L9.59201 83.2002L0.775918 98.564L32.0196 98.2789L63.2597 97.9938L47.3164 89.6749C31.6648 81.509 31.3343 80.9706 29.4114 60.6444L27.453 39.9329L13.8343 38.939L0.215616 37.9451L9.31183 52.8872ZM47.3006 82.1235C47.3271 85.0214 69.2128 95.0201 71.1657 93.0277C75.9935 88.1109 67.8467 80.2587 58.01 80.3485C52.1116 80.4023 47.2922 81.2 47.3006 82.1235ZM296.24 83.6344C295.114 86.649 295.145 90.0458 296.306 91.1888C299.123 93.9516 319.803 85.033 319.767 81.0701C319.716 75.5184 298.403 77.8432 296.24 83.6344Z" fill="#EDD0A6"/>
<path fill-rule="evenodd" clip-rule="evenodd" d="M401.15 96.8053C399.846 98.1336 398.894 112.095 399.037 127.827L399.298 156.427L549.829 156.051L700.356 155.679L699.046 124.611L697.74 93.5465L550.632 93.9655C469.726 94.1979 402.458 95.4735 401.15 96.8053ZM706.644 120.359C704.832 123.819 703.415 133.754 703.494 142.444C703.629 157.245 702.699 158.818 688.683 167.442L673.728 176.648L702.921 176.519C718.975 176.447 732.105 175.513 732.095 174.438C732.086 173.366 728.436 166.233 723.989 158.588L715.9 144.691L723.619 130.852L731.341 117.009L720.638 115.539C712.921 114.477 709.016 115.822 706.644 120.359ZM375.527 134.046L384.626 148.992L375.807 164.359L366.991 179.723L398.234 179.438L429.475 179.153L413.531 170.834C397.88 162.668 397.549 162.13 395.626 141.804L393.668 121.092L380.049 120.098L366.43 119.104L375.527 134.046ZM413.515 163.283C413.542 166.181 435.428 176.179 437.381 174.187C442.208 169.27 434.061 161.418 424.225 161.508C418.326 161.561 413.507 162.359 413.515 163.283ZM662.455 164.794C661.329 167.808 661.36 171.205 662.521 172.348C665.338 175.111 686.018 166.192 685.982 162.229C685.931 156.678 664.618 159.002 662.455 164.794Z" fill="#EDD0A6"/>
<path fill-rule="evenodd" clip-rule="evenodd" d="M400.379 12.3107C399.074 13.639 398.122 27.6006 398.266 43.3321L398.527 71.9325L549.058 71.5567L699.585 71.1843L698.275 40.1164L696.969 9.05191L549.86 9.47089C468.955 9.70323 401.686 10.9789 400.379 12.3107ZM705.872 35.8644C704.06 39.324 702.644 49.2593 702.723 57.9495C702.858 72.7504 701.928 74.323 687.912 82.9472L672.957 92.1532L702.149 92.0248C718.203 91.9526 731.334 91.0189 731.324 89.9432C731.314 88.8711 727.665 81.7386 723.217 74.0933L715.129 60.1965L722.848 46.3572L730.57 32.5143L719.866 31.0444C712.149 29.9825 708.244 31.3274 705.872 35.8644ZM374.755 49.5517L383.855 64.4973L375.036 79.8647L366.22 95.2286L397.463 94.9434L428.703 94.6583L412.76 86.3394C397.108 78.1735 396.778 77.6351 394.855 57.309L392.897 36.5975L379.278 35.6036L365.659 34.6096L374.755 49.5517ZM412.744 78.7881C412.771 81.686 434.656 91.6846 436.609 89.6922C441.437 84.7755 433.29 76.9233 423.454 77.013C417.555 77.0669 412.736 77.8646 412.744 78.7881ZM661.684 80.299C660.558 83.3136 660.589 86.7104 661.749 87.8534C664.567 90.6161 685.246 81.6976 685.21 77.7346C685.16 72.1829 663.846 74.5077 661.684 80.299Z" fill="#EDD0A6"/>
<path fill-rule="evenodd" clip-rule="evenodd" d="M766.593 93.4709C765.289 94.7992 764.337 108.761 764.48 124.492L764.741 153.093L915.272 152.717L1065.8 152.344L1064.49 121.277L1063.18 90.2121L916.075 90.631C835.169 90.8634 767.901 92.139 766.593 93.4709ZM1072.09 117.025C1070.27 120.484 1068.86 130.419 1068.94 139.11C1069.07 153.911 1068.14 155.483 1054.13 164.107L1039.17 173.313L1068.36 173.185C1084.42 173.113 1097.55 172.179 1097.54 171.103C1097.53 170.031 1093.88 162.899 1089.43 155.253L1081.34 141.357L1089.06 127.517L1096.78 113.674L1086.08 112.205C1078.36 111.143 1074.46 112.488 1072.09 117.025ZM740.97 130.712L750.069 145.657L741.25 161.025L732.434 176.389L763.677 176.104L794.917 175.818L778.974 167.5C763.323 159.334 762.992 158.795 761.069 138.469L759.111 117.758L745.492 116.764L731.873 115.77L740.97 130.712ZM778.958 159.948C778.985 162.846 800.871 172.845 802.824 170.852C807.651 165.936 799.504 158.083 789.668 158.173C783.769 158.227 778.95 159.025 778.958 159.948ZM1027.9 161.459C1026.77 164.474 1026.8 167.871 1027.96 169.014C1030.78 171.776 1051.46 162.858 1051.42 158.895C1051.37 153.343 1030.06 155.668 1027.9 161.459Z" fill="#EDD0A6"/>
<path fill-rule="evenodd" clip-rule="evenodd" d="M765.821 8.97478C764.517 10.3031 763.565 24.2646 763.709 39.9961L763.97 68.5966L914.5 68.2207L1065.03 67.8484L1063.72 36.7804L1062.41 5.71598L915.303 6.13495C834.398 6.36729 767.129 7.64293 765.821 8.97478ZM1071.32 32.5284C1069.5 35.9881 1068.09 45.9233 1068.17 54.6135C1068.3 69.4145 1067.37 70.987 1053.35 79.6112L1038.4 88.8173L1067.59 88.6888C1083.65 88.6166 1096.78 87.6829 1096.77 86.6073C1096.76 85.5351 1093.11 78.4027 1088.66 70.7573L1080.57 56.8606L1088.29 43.0213L1096.01 29.1784L1085.31 27.7085C1077.59 26.6465 1073.69 27.9915 1071.32 32.5284ZM740.198 46.2158L749.298 61.1613L740.478 76.5288L731.662 91.8926L762.906 91.6075L794.146 91.3224L778.203 83.0035C762.551 74.8376 762.221 74.2992 760.298 53.9731L758.339 33.2616L744.721 32.2676L731.102 31.2737L740.198 46.2158ZM778.187 75.4521C778.214 78.3501 800.099 88.3487 802.052 86.3563C806.88 81.4395 798.733 73.5873 788.897 73.6771C782.998 73.7309 778.179 74.5286 778.187 75.4521ZM1027.13 76.963C1026 79.9776 1026.03 83.3745 1027.19 84.5175C1030.01 87.2802 1050.69 78.3616 1050.65 74.3987C1050.6 68.847 1029.29 71.1718 1027.13 76.963Z" fill="#EDD0A6"/>
<path fill-rule="evenodd" clip-rule="evenodd" d="M1132.04 90.1354C1130.73 91.4637 1129.78 105.425 1129.92 121.157L1130.19 149.757L1280.72 149.381L1431.24 149.009L1429.93 117.941L1428.63 86.8766L1281.52 87.2956C1200.61 87.5279 1133.34 88.8036 1132.04 90.1354ZM1437.53 113.689C1435.72 117.149 1434.3 127.084 1434.38 135.774C1434.52 150.575 1433.59 152.148 1419.57 160.772L1404.61 169.978L1433.81 169.849C1449.86 169.777 1462.99 168.844 1462.98 167.768C1462.97 166.696 1459.32 159.563 1454.88 151.918L1446.79 138.021L1454.51 124.182L1462.23 110.339L1451.52 108.869C1443.81 107.807 1439.9 109.152 1437.53 113.689ZM1106.41 127.376L1115.51 142.322L1106.69 157.689L1097.88 173.053L1129.12 172.768L1160.36 172.483L1144.42 164.164C1128.77 155.998 1128.44 155.46 1126.51 135.134L1124.55 114.422L1110.94 113.428L1097.32 112.434L1106.41 127.376ZM1144.4 156.613C1144.43 159.511 1166.31 169.509 1168.27 167.517C1173.1 162.6 1164.95 154.748 1155.11 154.838C1149.21 154.892 1144.39 155.689 1144.4 156.613ZM1393.34 158.124C1392.22 161.138 1392.25 164.535 1393.41 165.678C1396.22 168.441 1416.9 159.522 1416.87 155.559C1416.82 150.008 1395.5 152.332 1393.34 158.124Z" fill="#EDD0A6"/>
<path fill-rule="evenodd" clip-rule="evenodd" d="M1131.27 5.64031C1129.96 6.96859 1129.01 20.9302 1129.15 36.6617L1129.41 65.2621L1279.94 64.8862L1430.47 64.5139L1429.16 33.446L1427.86 2.3815L1280.75 2.80048C1199.84 3.03282 1132.57 4.30846 1131.27 5.64031ZM1436.76 29.1939C1434.95 32.6536 1433.53 42.5889 1433.61 51.2791C1433.74 66.08 1432.81 67.6525 1418.8 76.2767L1403.84 85.4828L1433.04 85.3544C1449.09 85.2822 1462.22 84.3484 1462.21 83.2728C1462.2 82.2007 1458.55 75.0682 1454.1 67.4229L1446.02 53.5261L1453.73 39.6868L1461.46 25.8439L1450.75 24.374C1443.04 23.3121 1439.13 24.657 1436.76 29.1939ZM1105.64 42.8813L1114.74 57.8269L1105.92 73.1943L1097.11 88.5582L1128.35 88.273L1159.59 87.9879L1143.65 79.669C1128 71.5031 1127.66 70.9647 1125.74 50.6386L1123.78 29.9271L1110.16 28.9332L1096.55 27.9392L1105.64 42.8813ZM1143.63 72.1177C1143.66 75.0156 1165.54 85.0142 1167.5 83.0218C1172.32 78.1051 1164.18 70.2528 1154.34 70.3426C1148.44 70.3964 1143.62 71.1942 1143.63 72.1177ZM1392.57 73.6286C1391.44 76.6432 1391.48 80.04 1392.64 81.183C1395.45 83.9457 1416.13 75.0272 1416.1 71.0642C1416.05 65.5125 1394.73 67.8373 1392.57 73.6286Z" fill="#EDD0A6"/>
</svg>
